<svg width="12" height="12" viewBox="0 0 12 12" fill="none" xmlns="http://www.w3.org/2000/svg">
<path fill-rule="evenodd" clip-rule="evenodd" d="M1.74661 2.35355C1.55135 2.15829 1.55135 1.84171 1.74661 1.64645C1.94187 1.45118 2.25845 1.45118 2.45372 1.64645L6.10013 5.29286L9.52472 1.86826C9.71998 1.673 10.0366 1.673 10.2318 1.86826C10.4271 2.06352 10.4271 2.38011 10.2318 2.57537L6.80723 5.99996L10.2319 9.42462C10.4272 9.61988 10.4272 9.93647 10.2319 10.1317C10.0366 10.327 9.72005 10.327 9.52479 10.1317L6.10013 6.70707L2.45365 10.3535C2.25839 10.5488 1.94181 10.5488 1.74654 10.3535C1.55128 10.1583 1.55128 9.8417 1.74654 9.64644L5.39302 5.99996L1.74661 2.35355Z" fill="#959598"/>
</svg>
