<svg width="20" height="20" viewBox="0 0 20 20" fill="none" xmlns="http://www.w3.org/2000/svg">
<path d="M6.20044 13.1354H1.8645C1.69263 13.1354 1.552 13.2761 1.552 13.4479V14.3854C1.552 14.5573 1.69263 14.6979 1.8645 14.6979H5.26294V18.1354C5.26294 18.3073 5.40356 18.4479 5.57544 18.4479H6.51294C6.68481 18.4479 6.82544 18.3073 6.82544 18.1354V13.7604C6.82544 13.4147 6.54614 13.1354 6.20044 13.1354ZM6.51294 1.55209H5.57544C5.40356 1.55209 5.26294 1.69272 5.26294 1.86459V5.30209H1.8645C1.69263 5.30209 1.552 5.44272 1.552 5.61459V6.55209C1.552 6.72397 1.69263 6.86459 1.8645 6.86459H6.20044C6.54614 6.86459 6.82544 6.5853 6.82544 6.23959V1.86459C6.82544 1.69272 6.68481 1.55209 6.51294 1.55209ZM18.1353 13.1354H13.7994C13.4537 13.1354 13.1744 13.4147 13.1744 13.7604V18.1354C13.1744 18.3073 13.315 18.4479 13.4869 18.4479H14.4244C14.5963 18.4479 14.7369 18.3073 14.7369 18.1354V14.6979H18.1353C18.3072 14.6979 18.4478 14.5573 18.4478 14.3854V13.4479C18.4478 13.2761 18.3072 13.1354 18.1353 13.1354ZM18.1353 5.30209H14.7369V1.86459C14.7369 1.69272 14.5963 1.55209 14.4244 1.55209H13.4869C13.315 1.55209 13.1744 1.69272 13.1744 1.86459V6.23959C13.1744 6.5853 13.4537 6.86459 13.7994 6.86459H18.1353C18.3072 6.86459 18.4478 6.72397 18.4478 6.55209V5.61459C18.4478 5.44272 18.3072 5.30209 18.1353 5.30209Z" fill="#5B5B5E"/>
</svg>
