<svg width="24" height="24" viewBox="0 0 24 24" fill="none" xmlns="http://www.w3.org/2000/svg">
<path d="M12 1.5C14.7848 1.5 17.4555 2.60625 19.4246 4.57538C21.3938 6.54451 22.5 9.21523 22.5 12C22.5 14.7848 21.3938 17.4555 19.4246 19.4246C17.4555 21.3938 14.7848 22.5 12 22.5C9.21523 22.5 6.54451 21.3938 4.57538 19.4246C2.60625 17.4555 1.5 14.7848 1.5 12C1.5 9.21523 2.60625 6.54451 4.57538 4.57538C6.54451 2.60625 9.21523 1.5 12 1.5ZM12 3.3C9.69262 3.3 7.47974 4.2166 5.84817 5.84817C4.2166 7.47974 3.3 9.69262 3.3 12C3.3 14.3074 4.2166 16.5203 5.84817 18.1518C7.47974 19.7834 9.69262 20.7 12 20.7C14.3074 20.7 16.5203 19.7834 18.1518 18.1518C19.7834 16.5203 20.7 14.3074 20.7 12C20.7 9.69262 19.7834 7.47974 18.1518 5.84817C16.5203 4.2166 14.3074 3.3 12 3.3ZM15.6 11.1C15.8387 11.1 16.0676 11.1948 16.2364 11.3636C16.4052 11.5324 16.5 11.7613 16.5 12C16.5 12.2387 16.4052 12.4676 16.2364 12.6364C16.0676 12.8052 15.8387 12.9 15.6 12.9H8.4C8.16131 12.9 7.93239 12.8052 7.7636 12.6364C7.59482 12.4676 7.5 12.2387 7.5 12C7.5 11.7613 7.59482 11.5324 7.7636 11.3636C7.93239 11.1948 8.16131 11.1 8.4 11.1H15.6Z" fill="#5B5E60"/>
</svg>
