<svg width="24" height="24" viewBox="0 0 24 24" fill="none" xmlns="http://www.w3.org/2000/svg">
<path d="M21.676 14.6632L20.1409 13.3507C20.2135 12.9054 20.251 12.4507 20.251 11.996C20.251 11.5414 20.2135 11.0867 20.1409 10.6414L21.676 9.32886C21.7918 9.22973 21.8747 9.09771 21.9136 8.95034C21.9526 8.80297 21.9457 8.64724 21.894 8.50386L21.8729 8.44292C21.4503 7.26173 20.8174 6.16675 20.0049 5.21089L19.9627 5.16167C19.8642 5.04578 19.7328 4.96247 19.586 4.92272C19.4391 4.88297 19.2837 4.88865 19.1401 4.93901L17.2346 5.61636C16.5315 5.03979 15.7463 4.58511 14.8979 4.26636L14.5299 2.27417C14.5022 2.12427 14.4295 1.98636 14.3215 1.87877C14.2134 1.77119 14.0753 1.69901 13.9252 1.67183L13.862 1.66011C12.6409 1.43979 11.3565 1.43979 10.1354 1.66011L10.0721 1.67183C9.92212 1.69901 9.78393 1.77119 9.67592 1.87877C9.56791 1.98636 9.4952 2.12427 9.46744 2.27417L9.09712 4.27573C8.25546 4.59455 7.47166 5.049 6.77681 5.62104L4.85728 4.93901C4.71376 4.88825 4.5582 4.88237 4.41125 4.92214C4.26431 4.96191 4.13295 5.04545 4.03462 5.16167L3.99244 5.21089C3.1809 6.16743 2.54816 7.26223 2.12447 8.44292L2.10337 8.50386C1.99791 8.79683 2.08462 9.12495 2.32134 9.32886L3.87525 10.6554C3.80259 11.096 3.76744 11.546 3.76744 11.9937C3.76744 12.4437 3.80259 12.8937 3.87525 13.332L2.32134 14.6585C2.20555 14.7577 2.12268 14.8897 2.08374 15.0371C2.04481 15.1844 2.05165 15.3402 2.10337 15.4835L2.12447 15.5445C2.54869 16.7257 3.17681 17.8156 3.99244 18.7765L4.03462 18.8257C4.13319 18.9416 4.26455 19.0249 4.41141 19.0647C4.55827 19.1044 4.71372 19.0987 4.85728 19.0484L6.77681 18.3664C7.47525 18.9406 8.25572 19.3953 9.09712 19.7117L9.46744 21.7132C9.4952 21.8631 9.56791 22.001 9.67592 22.1086C9.78393 22.2162 9.92212 22.2884 10.0721 22.3156L10.1354 22.3273C11.3677 22.5488 12.6297 22.5488 13.862 22.3273L13.9252 22.3156C14.0753 22.2884 14.2134 22.2162 14.3215 22.1086C14.4295 22.001 14.5022 21.8631 14.5299 21.7132L14.8979 19.721C15.746 19.4031 16.5356 18.947 17.2346 18.371L19.1401 19.0484C19.2836 19.0991 19.4392 19.105 19.5861 19.0653C19.7331 19.0255 19.8644 18.9419 19.9627 18.8257L20.0049 18.7765C20.8206 17.8132 21.4487 16.7257 21.8729 15.5445L21.894 15.4835C21.9995 15.1953 21.9127 14.8671 21.676 14.6632ZM18.4768 10.9179C18.5354 11.2718 18.5659 11.6351 18.5659 11.9984C18.5659 12.3617 18.5354 12.725 18.4768 13.0789L18.3221 14.0187L20.0729 15.5164C19.8075 16.1278 19.4725 16.7066 19.0745 17.2414L16.8995 16.4703L16.1635 17.075C15.6034 17.5343 14.9799 17.8953 14.3049 18.1484L13.412 18.4835L12.9924 20.757C12.3305 20.832 11.6622 20.832 11.0002 20.757L10.5807 18.4789L9.69478 18.139C9.02681 17.8859 8.40572 17.525 7.85025 17.0679L7.11431 16.4609L4.92525 17.239C4.52681 16.7023 4.194 16.1234 3.92681 15.514L5.69634 14.0023L5.544 13.0648C5.48775 12.7156 5.45728 12.3546 5.45728 11.9984C5.45728 11.6398 5.48541 11.2812 5.544 10.932L5.69634 9.99448L3.92681 8.48276C4.19166 7.87104 4.52681 7.29448 4.92525 6.75776L7.11431 7.53589L7.85025 6.92886C8.40572 6.47183 9.02681 6.11089 9.69478 5.85776L10.5831 5.52261L11.0026 3.24448C11.6612 3.16948 12.3338 3.16948 12.9948 3.24448L13.4143 5.51792L14.3073 5.85308C14.9799 6.1062 15.6057 6.46714 16.1659 6.92651L16.9018 7.5312L19.0768 6.76011C19.4753 7.29683 19.8081 7.87573 20.0752 8.48511L18.3245 9.98276L18.4768 10.9179ZM12.001 7.63901C9.72291 7.63901 7.87603 9.48589 7.87603 11.764C7.87603 14.0421 9.72291 15.889 12.001 15.889C14.2792 15.889 16.126 14.0421 16.126 11.764C16.126 9.48589 14.2792 7.63901 12.001 7.63901ZM13.8573 13.6203C13.6138 13.8644 13.3245 14.058 13.0059 14.19C12.6873 14.3219 12.3458 14.3896 12.001 14.389C11.3002 14.389 10.6417 14.1148 10.1448 13.6203C9.90062 13.3768 9.707 13.0875 9.57507 12.7689C9.44314 12.4503 9.37549 12.1088 9.37603 11.764C9.37603 11.0632 9.65025 10.4046 10.1448 9.90776C10.6417 9.41089 11.3002 9.13901 12.001 9.13901C12.7018 9.13901 13.3604 9.41089 13.8573 9.90776C14.1014 10.1512 14.2951 10.4406 14.427 10.7591C14.5589 11.0777 14.6266 11.4192 14.626 11.764C14.626 12.4648 14.3518 13.1234 13.8573 13.6203Z" fill="#5B5E60"/>
</svg>
