<svg width="24" height="24" viewBox="0 0 24 24" fill="none" xmlns="http://www.w3.org/2000/svg">
<path d="M21.4 5.00005C21.5105 5.00005 21.6 4.91051 21.6 4.80005V4.00005C21.6 3.88959 21.5105 3.80005 21.4 3.80005H2.60002C2.48957 3.80005 2.40002 3.88959 2.40002 4.00005V4.80005C2.40002 4.91051 2.48957 5.00005 2.60002 5.00005H21.4ZM19 15.8C19.1105 15.8 19.2 15.7105 19.2 15.6V6.40005C19.2 6.28959 19.1105 6.20005 19 6.20005H13.4C13.2896 6.20005 13.2 6.28959 13.2 6.40005V15.6C13.2 15.7105 13.2896 15.8 13.4 15.8H19ZM10.8 7.40005V19.4H6.00002V7.40005H10.8ZM12 6.40005C12 6.28959 11.9105 6.20005 11.8 6.20005H5.00002C4.88957 6.20005 4.80002 6.28959 4.80002 6.40005V20.4C4.80002 20.5105 4.88957 20.6 5.00002 20.6H11.8C11.9105 20.6 12 20.5105 12 20.4V6.40005Z" fill="#9D9DA0"/>
</svg>
