<svg width="24" height="24" viewBox="0 0 24 24" fill="none" xmlns="http://www.w3.org/2000/svg">
<path d="M2.19995 20.3999C2.19995 20.5103 2.28949 20.5999 2.39995 20.5999H21.1999C21.3104 20.5999 21.4 20.5103 21.4 20.3999V19.5999C21.4 19.4894 21.3104 19.3999 21.1999 19.3999H2.39995C2.28949 19.3999 2.19995 19.4894 2.19995 19.5999V20.3999Z" fill="#9D9DA0"/>
<path d="M2.19995 4.40015C2.19995 4.5106 2.28949 4.60015 2.39995 4.60015L21.1999 4.60015C21.3104 4.60015 21.4 4.5106 21.4 4.40015V3.60015C21.4 3.48969 21.3104 3.40014 21.1999 3.40014H2.39995C2.28949 3.40014 2.19995 3.48969 2.19995 3.60014V4.40015Z" fill="#9D9DA0"/>
<path d="M5.59995 15.2001C5.59995 15.3106 5.68949 15.4001 5.79995 15.4001H17.4C17.5104 15.4001 17.6 15.3106 17.6 15.2001V9.00015C17.6 8.88969 17.5104 8.80015 17.4 8.80015L5.79995 8.80015C5.68949 8.80015 5.59995 8.88969 5.59995 9.00015L5.59995 15.2001Z" fill="#9D9DA0"/>
</svg>
