<svg width="24" height="24" viewBox="0 0 24 24" fill="none" xmlns="http://www.w3.org/2000/svg">
<path d="M11.7749 2.24023C11.8379 2.11472 11.9898 2.06478 12.1118 2.125V2.12598C12.1604 2.14988 12.2002 2.18875 12.2241 2.2373V2.23828L14.8843 7.63086L15.0005 7.86719L15.2612 7.9043L21.2104 8.76855V8.76953C21.3519 8.79076 21.4422 8.91872 21.4224 9.04883L21.4214 9.05469C21.4138 9.1075 21.3889 9.15701 21.3491 9.19629L17.0435 13.3936L16.856 13.5771L16.8999 13.8369L17.9175 19.7637V19.7646C17.9404 19.899 17.8502 20.0282 17.7134 20.0518H17.6313C17.6051 20.0476 17.5796 20.0393 17.5571 20.0273L17.5552 20.0264L12.2329 17.2285L11.9995 17.1055L11.7671 17.2285L6.44482 20.0264L6.44385 20.0273C6.40278 20.049 6.35637 20.058 6.31006 20.0547C6.26368 20.0514 6.21877 20.0351 6.18115 20.0078C6.14374 19.9805 6.11459 19.9433 6.09717 19.9004C6.07973 19.8574 6.07463 19.8104 6.08252 19.7646V19.7637L7.1001 13.8369L7.14404 13.5771L6.95654 13.3936L2.65088 9.19629C2.60321 9.14982 2.57559 9.0861 2.57471 9.01953C2.57389 8.95358 2.59839 8.88934 2.64404 8.8418L2.64502 8.84277C2.68429 8.80274 2.73368 8.7772 2.78662 8.76953H2.78857L8.73877 7.9043L8.99951 7.86719L9.11572 7.63086L11.7749 2.24023ZM11.5513 4.24707L9.45557 8.49414L4.76514 9.17676L3.76318 9.32227L4.48877 10.0293L7.88135 13.3379L7.07959 18.0078L6.90869 19.0068L7.80518 18.5352L11.9995 16.3301L16.1948 18.5332L17.0913 19.0039L16.9204 18.0059L16.1177 13.3359L19.5112 10.0293L20.2368 9.32227L19.2349 9.17676L14.5435 8.49414L12.4487 4.24707L11.9995 3.33887L11.5513 4.24707Z" stroke="#5B5B5E"/>
</svg>
