<svg width="16" height="16" viewBox="0 0 16 16" fill="none" xmlns="http://www.w3.org/2000/svg">
<path d="M7.25015 11.25C7.25015 11.4489 7.32917 11.6397 7.46982 11.7803C7.61047 11.921 7.80124 12 8.00015 12C8.19906 12 8.38983 11.921 8.53048 11.7803C8.67113 11.6397 8.75015 11.4489 8.75015 11.25C8.75015 11.0511 8.67113 10.8603 8.53048 10.7197C8.38983 10.579 8.19906 10.5 8.00015 10.5C7.80124 10.5 7.61047 10.579 7.46982 10.7197C7.32917 10.8603 7.25015 11.0511 7.25015 11.25ZM7.50015 6.5V9.375C7.50015 9.44375 7.5564 9.5 7.62515 9.5H8.37515C8.4439 9.5 8.50015 9.44375 8.50015 9.375V6.5C8.50015 6.43125 8.4439 6.375 8.37515 6.375H7.62515C7.5564 6.375 7.50015 6.43125 7.50015 6.5ZM14.933 13.375L8.43296 2.125C8.33609 1.95781 8.1689 1.875 8.00015 1.875C7.8314 1.875 7.66265 1.95781 7.56734 2.125L1.06734 13.375C0.875152 13.7094 1.11578 14.125 1.50015 14.125H14.5002C14.8845 14.125 15.1252 13.7094 14.933 13.375ZM2.69078 12.9391L8.00015 3.74844L13.3095 12.9391H2.69078Z" fill="#E6A23C"/>
</svg>
