<svg width="24" height="24" viewBox="0 0 24 24" fill="none" xmlns="http://www.w3.org/2000/svg">
<path d="M11.6997 2.39999C12.1968 2.39999 12.6001 2.80333 12.6001 3.30038C12.5999 3.75584 12.2609 4.13241 11.8218 4.19199L11.6997 4.1998H4.19971V19.8004H19.8003V11.3336C19.8003 10.878 20.1384 10.5017 20.5776 10.442L20.6997 10.4332C21.1553 10.4332 21.5317 10.7722 21.5913 11.2115L21.6001 11.3336V20.6002C21.6 21.1523 21.1522 21.6001 20.6001 21.6002H3.3999C2.84768 21.6002 2.40001 21.1524 2.3999 20.6002V3.39999C2.3999 2.84771 2.84762 2.39999 3.3999 2.39999H11.6997ZM20.6997 3.60019C21.1966 3.60019 21.5999 4.00273 21.6001 4.4996C21.6001 4.99666 21.1968 5.39999 20.6997 5.39999C16.6598 5.40006 14.268 7.51415 13.7554 12.0084L15.2632 10.5016C15.5827 10.1821 16.0827 10.1533 16.4351 10.4146L16.5366 10.5016C16.856 10.8211 16.8849 11.3211 16.6235 11.6734L16.5366 11.774L13.9429 14.3678C13.6229 14.6876 13.2061 14.8509 12.7866 14.86C12.7744 14.8604 12.7618 14.8619 12.7495 14.8619C12.7371 14.8619 12.7247 14.8605 12.7124 14.86C12.347 14.8519 11.984 14.7268 11.6851 14.483L11.5571 14.3678L8.96338 11.774C8.61218 11.4225 8.61202 10.8529 8.96338 10.5016C9.2829 10.182 9.78292 10.1532 10.1353 10.4146L10.2358 10.5016L11.9292 12.1949C12.4548 6.55082 15.5866 3.60026 20.6997 3.60019Z" fill="#5B5E60"/>
</svg>
