<svg width="20" height="20" viewBox="0 0 20 20" fill="none" xmlns="http://www.w3.org/2000/svg">
<path d="M8.5 10.5C9.05228 10.5 9.5 10.9477 9.5 11.5V17C9.5 17.5177 9.10667 17.9438 8.60254 17.9951L8.5 18H2.5L2.39746 17.9951C1.92703 17.9472 1.55278 17.573 1.50488 17.1025L1.5 17V11.5C1.5 10.9477 1.94772 10.5 2.5 10.5H8.5ZM18 13.5L15.7129 14.6436L17.4785 16.3789L16.3857 17.4541L14.6494 15.7012L13.5 18L11 11L18 13.5ZM3 16.5H8V12H3V16.5ZM8.5 2C9.05228 2 9.5 2.44772 9.5 3V8.5C9.5 9.01768 9.10667 9.44379 8.60254 9.49512L8.5 9.5H2.5L2.39746 9.49512C1.92703 9.44722 1.55278 9.07297 1.50488 8.60254L1.5 8.5V3C1.5 2.44772 1.94772 2 2.5 2H8.5ZM17.5 2C18.0523 2 18.5 2.44772 18.5 3V8.5C18.5 9.01768 18.1067 9.44379 17.6025 9.49512L17.5 9.5H11.5L11.3975 9.49512C10.927 9.44722 10.5528 9.07297 10.5049 8.60254L10.5 8.5V3C10.5 2.44772 10.9477 2 11.5 2H17.5ZM3 8H8V3.5H3V8ZM12 8H17V3.5H12V8Z" fill="#5B5B5E"/>
</svg>
