<svg width="24" height="24" viewBox="0 0 24 24" fill="none" xmlns="http://www.w3.org/2000/svg">
<path d="M22.1509 6.0814C20.6221 4.45069 19.0787 2.80543 17.55 1.16016C17.448 1.04368 17.3316 1 17.186 1H3.50001C2.67158 1 2.00001 1.66614 2.00001 2.49457C2.00001 6.71602 1.99999 17.5161 2.00001 21.5022C2.00001 22.3306 2.66671 23 3.49508 23C7.39433 23 17.0353 23 20.7837 23C21.6121 23 22.2819 22.3284 22.2819 21.5V6.4454C22.2965 6.28524 22.2528 6.18332 22.1509 6.0814ZM17.1714 4.0867C17.1714 3.89742 17.2588 3.76638 17.4335 3.69358C17.6082 3.62078 17.7684 3.66446 17.9285 3.82462L19.1079 5.09133C19.4282 5.42621 19.7485 5.77564 20.0979 6.13964H17.5936C17.3607 6.13964 17.2005 5.96492 17.2005 5.73197C17.1714 5.16413 17.1714 4.62541 17.1714 4.0867ZM20.2872 21.5003H3.9947C3.65982 21.5003 3.49966 21.3402 3.49966 21.0053V11.9927V3.03839C3.49966 2.63071 3.6307 2.49967 4.03838 2.49967H15.1476C15.5261 2.49967 15.6572 2.63071 15.6572 3.02383C15.6572 3.47005 15.6583 4.94453 15.6591 6.12518C15.6597 6.9536 16.3316 7.62475 17.16 7.62475H20.2872C20.6367 7.62475 20.7968 7.77035 20.7968 8.11979V20.9907C20.7968 21.3402 20.6367 21.5003 20.2872 21.5003Z" fill="#5B5B5E"/>
<path d="M11.624 17.6848H8.61013C8.36262 17.6848 8.3335 17.6557 8.3335 17.4082V16.2871C8.3335 16.1706 8.36262 16.0833 8.44998 15.9959C9.29445 15.0641 10.1244 14.1322 10.9543 13.2004C11.2164 12.9092 11.2309 12.7782 10.9834 12.4724C10.1389 11.4241 9.29445 10.3903 8.44998 9.34202C8.37718 9.25466 8.3335 9.15275 8.34806 9.03627V7.90059C8.34806 7.69676 8.39174 7.65308 8.59557 7.65308H14.7107C14.9291 7.65308 14.9582 7.69676 14.9582 7.91515V8.87611C14.9582 9.09451 14.9146 9.13819 14.6962 9.13819H11.1436C10.8378 9.13819 10.6631 9.3129 10.6922 9.57498C10.7068 9.6769 10.765 9.76426 10.8378 9.83706L13.1965 12.5889C13.4003 12.8218 13.4003 12.8364 13.1819 13.0548C12.4103 13.8702 11.6532 14.6855 10.8815 15.4863C10.7504 15.6173 10.6922 15.7629 10.765 15.9377C10.8378 16.1269 10.998 16.1852 11.1872 16.1706H14.6816C14.9437 16.1706 14.9728 16.1997 14.9728 16.4618V17.4082C14.9728 17.6266 14.9291 17.6557 14.7107 17.6557C13.6624 17.6848 12.6432 17.6848 11.624 17.6848Z" fill="#5B5B5E"/>
</svg>
