<svg width="24" height="24" viewBox="0 0 24 24" fill="none" xmlns="http://www.w3.org/2000/svg">
<path d="M7.19995 3.2999C7.19995 2.80285 7.60289 2.3999 8.09995 2.3999H15.9C16.397 2.3999 16.8 2.80285 16.8 3.2999C16.8 3.79696 16.397 4.1999 15.9 4.1999H8.09995C7.60289 4.1999 7.19995 3.79696 7.19995 3.2999Z" fill="#5B5E60"/>
<path d="M15.0059 11.0334C14.6544 10.6819 14.0846 10.6819 13.7331 11.0334L11.9695 12.797L10.2059 11.0334L10.1049 10.9462C9.7526 10.6848 9.25261 10.7138 8.93309 11.0334C8.58161 11.3848 8.58161 11.9547 8.93309 12.3062L10.6967 14.0698L8.93309 15.8334L8.84594 15.9343C8.58452 16.2866 8.61357 16.7866 8.93309 17.1062C9.28456 17.4576 9.85441 17.4576 10.2059 17.1062L11.9695 15.3426L13.7331 17.1062L13.834 17.1933C14.1864 17.4547 14.6864 17.4257 15.0059 17.1062C15.3573 16.7547 15.3573 16.1848 15.0059 15.8334L13.2423 14.0698L15.0059 12.3062L15.093 12.2052C15.3544 11.8529 15.3254 11.3529 15.0059 11.0334Z" fill="#5B5E60"/>
<path fill-rule="evenodd" clip-rule="evenodd" d="M18.9 8.0999H20.4L20.5221 8.09169C20.9614 8.03209 21.2999 7.65554 21.2999 7.1999C21.2999 6.70285 20.897 6.2999 20.4 6.2999H3.59995L3.47783 6.30812C3.03854 6.36771 2.69995 6.74427 2.69995 7.1999C2.69995 7.69696 3.10289 8.0999 3.59995 8.0999H5.09995V20.3958C5.09995 21.0585 5.63721 21.5958 6.29995 21.5958H17.7C18.3627 21.5958 18.9 21.0585 18.9 20.3958V8.0999ZM17.1 8.0999H6.89995V19.7951H17.1V8.0999Z" fill="#5B5E60"/>
</svg>
