<svg width="20" height="20" viewBox="0 0 20 20" fill="none" xmlns="http://www.w3.org/2000/svg">
<path d="M7.55115 4.24129C7.27019 3.93693 6.7957 3.91795 6.49133 4.1989L3.24133 7.1989L3.16895 7.27496C2.77513 7.74788 3.10325 8.5 3.75004 8.5H16.25L16.3518 8.49316C16.7179 8.44349 17 8.1297 17 7.75L16.9932 7.64823C16.9435 7.28216 16.6297 7 16.25 7H5.66704L7.50876 5.30111L7.58468 5.21996C7.81409 4.93529 7.80656 4.51799 7.55115 4.24129Z" fill="#5B5E60"/>
<path d="M12.4474 15.7587C12.7284 16.0631 13.2029 16.0821 13.5072 15.8011L16.7572 12.8011L16.8296 12.725C17.2234 12.2521 16.8953 11.5 16.2485 11.5H3.74854L3.64676 11.5068C3.28069 11.5565 2.99854 11.8703 2.99854 12.25L3.00538 12.3518C3.05504 12.7178 3.36884 13 3.74854 13H14.3315L12.4898 14.6989L12.4139 14.78C12.1845 15.0647 12.192 15.482 12.4474 15.7587Z" fill="#5B5E60"/>
</svg>
