<svg width="24" height="24" viewBox="0 0 24 24" fill="none" xmlns="http://www.w3.org/2000/svg">
<path d="M21.3999 19.2C21.5104 19.2 21.5999 19.2895 21.5999 19.4V20.2C21.5999 20.3104 21.5104 20.4 21.3999 20.4H2.5999C2.48945 20.4 2.3999 20.3104 2.3999 20.2V19.4C2.3999 19.2895 2.48945 19.2 2.5999 19.2H21.3999ZM20.1999 8.39998C20.3104 8.39998 20.3999 8.48952 20.3999 8.59998V17.8C20.3999 17.9104 20.3104 18 20.1999 18H14.5999C14.4894 18 14.3999 17.9104 14.3999 17.8V8.59998C14.3999 8.48952 14.4894 8.39998 14.5999 8.39998H20.1999ZM10.7999 4.79998V16.8H5.9999V4.79998H10.7999ZM11.9999 3.79998C11.9999 3.68952 11.9104 3.59998 11.7999 3.59998H4.9999C4.88945 3.59998 4.7999 3.68952 4.7999 3.79998V17.8C4.7999 17.9104 4.88945 18 4.9999 18H11.7999C11.9104 18 11.9999 17.9104 11.9999 17.8V3.79998Z" fill="#9D9DA0"/>
</svg>
