<svg width="24" height="24" viewBox="0 0 24 24" fill="none" xmlns="http://www.w3.org/2000/svg">
<path d="M19.2001 2.60002C19.2001 2.48957 19.2896 2.40002 19.4001 2.40002H20.2001C20.3106 2.40002 20.4001 2.48957 20.4001 2.60002V21.4C20.4001 21.5105 20.3106 21.6 20.2001 21.6H19.4001C19.2896 21.6 19.2001 21.5105 19.2001 21.4V2.60002ZM8.4001 5.00002C8.4001 4.88957 8.48964 4.80002 8.6001 4.80002H17.8001C17.9106 4.80002 18.0001 4.88957 18.0001 5.00002V10.6C18.0001 10.7105 17.9106 10.8 17.8001 10.8H8.6001C8.48964 10.8 8.4001 10.7105 8.4001 10.6V5.00002ZM16.8001 13.2V18H4.8001V13.2H16.8001ZM18.0001 12.2C18.0001 12.0896 17.9106 12 17.8001 12H3.8001C3.68964 12 3.6001 12.0896 3.6001 12.2V19C3.6001 19.1105 3.68964 19.2 3.8001 19.2H17.8001C17.9106 19.2 18.0001 19.1105 18.0001 19V12.2Z" fill="#9D9DA0"/>
</svg>
