<svg width="24" height="24" viewBox="0 0 24 24" fill="none" xmlns="http://www.w3.org/2000/svg">
<path d="M3.59998 2.60002C3.59998 2.48957 3.68952 2.40002 3.79998 2.40002H4.59998C4.71043 2.40002 4.79998 2.48957 4.79998 2.60002V21.4C4.79998 21.5105 4.71043 21.6 4.59998 21.6H3.79998C3.68952 21.6 3.59998 21.5105 3.59998 21.4V2.60002ZM5.99998 5.00002C5.99998 4.88957 6.08952 4.80002 6.19998 4.80002H15.4C15.5104 4.80002 15.6 4.88957 15.6 5.00002V10.6C15.6 10.7105 15.5104 10.8 15.4 10.8H6.19998C6.08952 10.8 5.99998 10.7105 5.99998 10.6V5.00002ZM19.2 13.2V18H7.19998V13.2H19.2ZM20.4 12.2C20.4 12.0896 20.3104 12 20.2 12H6.19998C6.08952 12 5.99998 12.0896 5.99998 12.2V19C5.99998 19.1105 6.08952 19.2 6.19998 19.2H20.2C20.3104 19.2 20.4 19.1105 20.4 19V12.2Z" fill="#9D9DA0"/>
</svg>
