<svg width="20" height="20" viewBox="0 0 20 20" fill="none" xmlns="http://www.w3.org/2000/svg">
<rect width="20" height="20" rx="6" fill="#F56C6C"/>
<path d="M9.96631 4.5C11.2857 4.5 12.3383 4.81132 13.124 5.46361C13.8652 6.07143 14.3248 6.94609 14.5175 8.10243H13.3019C13.1388 7.30189 12.783 6.69407 12.2345 6.26415C11.6563 5.80458 10.9003 5.58221 9.96631 5.58221C8.80997 5.58221 7.90566 5.98248 7.22372 6.79784C6.54178 7.59838 6.21563 8.68059 6.21563 10.0445C6.21563 11.3787 6.54178 12.4313 7.19407 13.2022C7.89084 14.0175 8.92857 14.4326 10.3073 14.4326C10.8854 14.4326 11.434 14.3437 11.9677 14.1954C12.4865 14.0472 12.9313 13.8396 13.3019 13.6024V10.9043H9.98113V9.85175H14.5027V14.1806C13.9987 14.5957 13.376 14.907 12.6496 15.1442C11.8787 15.3814 11.0633 15.5 10.1887 15.5C8.51348 15.5 7.2089 14.9663 6.28976 13.8989C5.42992 12.9057 5 11.6159 5 10.0445C5 8.47305 5.41509 7.18329 6.27493 6.16038C7.17925 5.04852 8.4097 4.5 9.96631 4.5Z" fill="white"/>
</svg>
