<svg width="20" height="20" viewBox="0 0 20 20" fill="none" xmlns="http://www.w3.org/2000/svg">
<rect width="20" height="20" rx="6" fill="#0055FF"/>
<path d="M12.396 5.00391H13.782V5.96991H12.536C12.228 5.96991 11.99 6.03991 11.85 6.20791C11.71 6.36191 11.64 6.61391 11.64 6.96391V7.76191H13.684V8.69991H11.64V14.9999H10.52V8.69991H8.69995V7.76191H10.52V6.93591C10.52 6.31991 10.674 5.85791 10.982 5.52191C11.304 5.17191 11.78 5.00391 12.396 5.00391Z" fill="white"/>
<path d="M6.84 5.03198C7.078 5.03198 7.274 5.10198 7.442 5.26998C7.61 5.40998 7.694 5.60598 7.694 5.85798C7.694 6.09598 7.61 6.29198 7.442 6.45998C7.274 6.61398 7.078 6.69798 6.84 6.69798C6.602 6.69798 6.406 6.61398 6.238 6.45998C6.07 6.29198 6 6.09598 6 5.85798C6 5.60598 6.07 5.40998 6.238 5.26998C6.406 5.10198 6.602 5.03198 6.84 5.03198ZM6.28 7.76198H7.4V15H6.28V7.76198Z" fill="white"/>
</svg>
