<svg width="20" height="20" viewBox="0 0 20 20" fill="none" xmlns="http://www.w3.org/2000/svg">
<rect width="20" height="20" rx="6" fill="#E6A23C"/>
<path d="M13.3596 16H5.63927C5.39315 16 5.16939 15.8598 5.06284 15.6388C4.9563 15.4167 4.98719 15.1543 5.14062 14.9631L9.12555 10.0197L5.14062 5.03479C4.98719 4.84356 4.95736 4.5822 5.06391 4.36122C5.17046 4.14024 5.39421 4 5.64034 4H13.3607C13.7144 4 14 4.28579 14 4.63745C14 4.98911 13.7144 5.2749 13.3607 5.2749H6.96794L10.4457 9.62337C10.6321 9.85604 10.6311 10.1875 10.4446 10.4202L6.97433 14.7251H13.3596C13.7134 14.7251 13.9989 15.0109 13.9989 15.3625C13.9989 15.7142 13.7134 16 13.3596 16Z" fill="white"/>
</svg>
