<svg width="16" height="16" viewBox="0 0 16 16" fill="none" xmlns="http://www.w3.org/2000/svg">
<path d="M6.19971 7H9.80029V5.59961H11.0005V7H14.3999V8.19922H11.0005V10.1992H14.3999V11.3994H11.0005V13.1992H9.80029V11.3994H6.19971V13.1992H5.00049V11.3994H1.6001V10.1992H5.00049V8.19922H1.6001V7H5.00049V5.59961H6.19971V7ZM6.19971 8.19922V10.1992H9.80029V8.19922H6.19971Z" fill="#AEB4BF"/>
<path d="M2.00005 13.1996H14V2.79961H2.00005V13.1996ZM15.2 13.5996C15.2 14.0138 14.8854 14.3546 14.4821 14.3957L14.4 14.3996H1.60005C1.15822 14.3996 0.800049 14.0414 0.800049 13.5996V2.39961C0.800049 1.95778 1.15822 1.59961 1.60005 1.59961H14.4L14.4821 1.60352C14.8854 1.64458 15.2 1.98547 15.2 2.39961V13.5996Z" fill="#989EAA"/>
<path d="M0.800049 2.59961C0.800049 2.04732 1.24776 1.59961 1.80005 1.59961H14.2C14.7523 1.59961 15.2 2.04732 15.2 2.59961V5.59961H0.800049V2.59961Z" fill="#0055FF"/>
</svg>
