<svg width="20" height="20" viewBox="0 0 20 20" fill="none" xmlns="http://www.w3.org/2000/svg">
<rect width="20" height="20" rx="6" fill="#F56C6C"/>
<path d="M15.2336 10.2498C15.3128 10.1311 15.4875 10.1311 15.5666 10.2498L16.9924 12.3895C17.0807 12.5223 16.9859 12.6998 16.8264 12.7H15.8401C15.4291 14.5534 13.7772 15.9392 11.8 15.9393H8.19944C5.91316 15.9391 4.05979 14.0859 4.05979 11.7996C4.06 11.5016 4.30173 11.2606 4.59983 11.2606C4.89794 11.2606 5.13967 11.5016 5.13987 11.7996C5.13987 13.4895 6.50963 14.86 8.19944 14.8602H11.8C13.1767 14.8601 14.3414 13.9508 14.7258 12.7H13.9739C13.8143 12.7 13.7187 12.5223 13.8069 12.3895L15.2336 10.2498ZM11.8 4.06036C14.0864 4.06047 15.9397 5.91362 15.9397 8.20001C15.9397 8.49824 15.6979 8.74005 15.3996 8.74005C15.1015 8.73995 14.8606 8.49818 14.8606 8.20001C14.8606 6.51009 13.4899 5.13957 11.8 5.13947H8.19944C6.82302 5.13964 5.65917 6.04915 5.27464 7.29962H6.02659C6.18605 7.29996 6.28113 7.47836 6.19261 7.61115L4.76585 9.75079C4.68664 9.86892 4.51302 9.86892 4.43382 9.75079L3.00706 7.61115C2.91854 7.47836 3.01361 7.29996 3.17308 7.29962H4.16038C4.57152 5.44652 6.22253 4.06055 8.19944 4.06036H11.8Z" fill="white"/>
</svg>
