<svg width="28" height="28" viewBox="0 0 28 28" fill="none" xmlns="http://www.w3.org/2000/svg">
<path d="M21 6C21.5523 6 22 6.44772 22 7V21C22 21.5523 21.5523 22 21 22H7L6.89746 21.9951C6.39333 21.9438 6 21.5177 6 21V7C6 6.48232 6.39333 6.05621 6.89746 6.00488L7 6H21ZM7.5 20.5H20.5V7.5H7.5V20.5ZM14 9.75C14.4142 9.75 14.75 10.0858 14.75 10.5V13.25H17C17.4142 13.25 17.75 13.5858 17.75 14C17.75 14.4142 17.4142 14.75 17 14.75H14.75V17.5C14.75 17.9142 14.4142 18.25 14 18.25C13.5858 18.25 13.25 17.9142 13.25 17.5V14.75H11C10.5858 14.75 10.25 14.4142 10.25 14C10.25 13.5858 10.5858 13.25 11 13.25H13.25V10.5C13.25 10.0858 13.5858 9.75 14 9.75Z" fill="#1890ff"/>
</svg>
