<svg width="24" height="24" viewBox="0 0 24 24" fill="none" xmlns="http://www.w3.org/2000/svg">
<path d="M11.4 2.60002C11.4 2.48957 11.4896 2.40002 11.6 2.40002H12.4C12.5105 2.40002 12.6 2.48957 12.6 2.60002V12H11.4V2.60002ZM11.4 19.2H12.6V21.4C12.6 21.5105 12.5105 21.6 12.4 21.6H11.6C11.4896 21.6 11.4 21.5105 11.4 21.4V19.2ZM7.20005 5.00002C7.20005 4.88957 7.28959 4.80002 7.40005 4.80002H16.6C16.7105 4.80002 16.8 4.88957 16.8 5.00002V10.6C16.8 10.7105 16.7105 10.8 16.6 10.8H7.40005C7.28959 10.8 7.20005 10.7105 7.20005 10.6V5.00002ZM18 13.2V18H6.00005V13.2H18ZM19.2 12.2C19.2 12.0896 19.1105 12 19 12H5.00005C4.88959 12 4.80005 12.0896 4.80005 12.2V19C4.80005 19.1105 4.88959 19.2 5.00005 19.2H19C19.1105 19.2 19.2 19.1105 19.2 19V12.2Z" fill="#9D9DA0"/>
</svg>
