<svg width="24" height="24" viewBox="0 0 24 24" fill="none" xmlns="http://www.w3.org/2000/svg">
<path d="M3.4002 2.40002C3.28974 2.40002 3.2002 2.48957 3.2002 2.60002V21.4C3.2002 21.5105 3.28974 21.6 3.4002 21.6H4.2002C4.31065 21.6 4.4002 21.5105 4.4002 21.4V2.60002C4.4002 2.48957 4.31065 2.40002 4.2002 2.40002H3.4002Z" fill="#9D9DA0"/>
<path d="M19.3999 2.40002C19.2894 2.40002 19.1999 2.48957 19.1999 2.60002V21.4C19.1999 21.5105 19.2894 21.6 19.3999 21.6H20.1999C20.3104 21.6 20.3999 21.5105 20.3999 21.4V2.60002C20.3999 2.48957 20.3104 2.40002 20.1999 2.40002H19.3999Z" fill="#9D9DA0"/>
<path d="M8.5999 5.80002C8.48945 5.80002 8.3999 5.88957 8.3999 6.00002V17.6C8.3999 17.7105 8.48945 17.8 8.5999 17.8H14.7999C14.9104 17.8 14.9999 17.7105 14.9999 17.6V6.00002C14.9999 5.88957 14.9104 5.80002 14.7999 5.80002H8.5999Z" fill="#9D9DA0"/>
</svg>
