<svg width="24" height="24" viewBox="0 0 24 24" fill="none" xmlns="http://www.w3.org/2000/svg">
<path d="M20.3333 2C20.7754 2 21.1993 2.17559 21.5118 2.48816C21.8244 2.80072 22 3.22464 22 3.66667V20.3333C22 20.7754 21.8244 21.1993 21.5118 21.5118C21.1993 21.8244 20.7754 22 20.3333 22H3.66667C3.22464 22 2.80072 21.8244 2.48816 21.5118C2.17559 21.1993 2 20.7754 2 20.3333V3.66667C2 3.22464 2.17559 2.80072 2.48816 2.48816C2.80072 2.17559 3.22464 2 3.66667 2H20.3333ZM20.5 3.5H3.5V20.3333H20.5V3.5ZM14.675 5.34C15.8467 5.34 16.8683 6.13 17.1633 7.26167L17.375 8.06833C17.3888 8.12141 17.3919 8.17669 17.3843 8.23099C17.3767 8.28529 17.3584 8.33755 17.3305 8.38478C17.3027 8.43201 17.2657 8.47327 17.2219 8.5062C17.178 8.53912 17.1281 8.56307 17.075 8.57667L16.27 8.78667C16.1633 8.8146 16.0498 8.79905 15.9545 8.74344C15.8592 8.68782 15.7898 8.59668 15.7617 8.49L15.5517 7.68167C15.5008 7.48803 15.3871 7.31674 15.2285 7.19459C15.0699 7.07245 14.8752 7.00636 14.675 7.00667C14.4694 7.007 14.2694 7.07415 14.1053 7.198C13.9412 7.32185 13.8217 7.4957 13.765 7.69333L13.2467 9.5H14.5833C14.6938 9.5 14.7998 9.5439 14.878 9.62204C14.9561 9.70018 15 9.80616 15 9.91667V10.75C15 10.8605 14.9561 10.9665 14.878 11.0446C14.7998 11.1228 14.6938 11.1667 14.5833 11.1667H12.7667L11.1633 16.7767C11.0073 17.3214 10.6781 17.8005 10.2255 18.1415C9.77295 18.4825 9.22165 18.6669 8.655 18.6667C7.48833 18.6667 6.46833 17.8783 6.17333 16.75L5.965 15.9433C5.9512 15.8904 5.94796 15.8352 5.95549 15.781C5.96301 15.7268 5.98114 15.6746 6.00885 15.6274C6.03655 15.5802 6.07329 15.5389 6.11695 15.5059C6.16062 15.4729 6.21036 15.4488 6.26333 15.435L7.07 15.2267C7.12297 15.2129 7.17813 15.2096 7.23235 15.2172C7.28657 15.2247 7.33877 15.2428 7.38598 15.2705C7.43318 15.2982 7.47447 15.335 7.50747 15.3786C7.54048 15.4223 7.56456 15.472 7.57833 15.525L7.78667 16.33C7.83684 16.522 7.94931 16.692 8.10645 16.8132C8.26359 16.9345 8.45652 17.0002 8.655 17C8.85961 16.9999 9.05861 16.9331 9.22189 16.8098C9.38518 16.6865 9.50387 16.5134 9.56 16.3167L11.035 11.1667H9.8C9.68949 11.1667 9.58351 11.1228 9.50537 11.0446C9.42723 10.9665 9.38333 10.8605 9.38333 10.75V9.91667C9.38333 9.80616 9.42723 9.70018 9.50537 9.62204C9.58351 9.5439 9.68949 9.5 9.8 9.5H11.5133L12.1633 7.23333C12.3199 6.68799 12.6496 6.20836 13.1027 5.86683C13.5558 5.5253 14.1076 5.34039 14.675 5.34ZM17.3067 14.3067L17.895 14.895C17.9592 14.9596 18.0006 15.0435 18.0126 15.1338C18.0246 15.2241 18.0067 15.3158 17.9617 15.395L17.895 15.485L17.0117 16.3683L17.895 17.2517C17.9592 17.3163 18.0006 17.4001 18.0126 17.4904C18.0246 17.5807 18.0067 17.6725 17.9617 17.7517L17.895 17.8417L17.3067 18.4317C17.268 18.4705 17.222 18.5013 17.1714 18.5223C17.1207 18.5433 17.0665 18.5541 17.0117 18.5541C16.9569 18.5541 16.9026 18.5433 16.852 18.5223C16.8014 18.5013 16.7554 18.4705 16.7167 18.4317L15.8333 17.5483L14.95 18.4317C14.9113 18.4705 14.8653 18.5013 14.8147 18.5223C14.7641 18.5433 14.7098 18.5541 14.655 18.5541C14.6002 18.5541 14.5459 18.5433 14.4953 18.5223C14.4447 18.5013 14.3987 18.4705 14.36 18.4317L13.77 17.8417C13.7058 17.7771 13.6644 17.6932 13.6524 17.6029C13.6404 17.5126 13.6583 17.4208 13.7033 17.3417L13.77 17.2533L14.6533 16.3683L13.77 15.485C13.7058 15.4204 13.6644 15.3365 13.6524 15.2462C13.6404 15.1559 13.6583 15.0642 13.7033 14.985L13.77 14.895L14.36 14.3067C14.4381 14.2288 14.5439 14.1851 14.6542 14.1851C14.7644 14.1851 14.8702 14.2288 14.9483 14.3067L15.8333 15.19L16.7167 14.3067C16.7554 14.2679 16.8014 14.2371 16.852 14.2161C16.9026 14.1951 16.9569 14.1843 17.0117 14.1843C17.0665 14.1843 17.1207 14.1951 17.1714 14.2161C17.222 14.2371 17.268 14.2679 17.3067 14.3067Z" fill="#5B5B5E"/>
</svg>
