<svg width="24" height="24" viewBox="0 0 24 24" fill="none" xmlns="http://www.w3.org/2000/svg">
<path fill-rule="evenodd" clip-rule="evenodd" d="M11.4088 2.70713C11.4088 2.4061 11.4985 2.1134 11.6644 1.86586L11.773 1.72305C12.3145 1.0926 13.2625 1.0221 13.8906 1.5656L21.0788 7.78573C21.1349 7.83426 21.1873 7.88688 21.2356 7.94318C21.7771 8.57363 21.7069 9.5253 21.0788 10.0688L13.8906 16.2889C13.618 16.5248 13.2701 16.6545 12.9102 16.6545C12.081 16.6545 11.4088 15.9798 11.4088 15.1474V12.5806L11.2436 12.596C9.2919 12.8027 8.40853 13.6355 8.34098 15.1642L8.33677 15.3589C8.33677 17.5551 9.33256 19.4832 11.3837 21.1931C12.1812 21.8579 11.4129 23.1266 10.4579 22.7219C5.15065 20.4735 2.3999 17.2706 2.3999 13.1473C2.3999 8.54291 5.70499 5.24749 11.113 4.83956L11.4088 4.81935V2.70713ZM19.6369 8.92606L13.2105 3.36525V5.70102C13.2105 6.19919 12.8092 6.60353 12.3129 6.60531L12.161 6.60585C7.09625 6.64236 4.20168 9.29126 4.20168 13.1473C4.20168 15.277 5.14547 17.1276 7.08568 18.7083L7.28511 18.8661L7.18298 18.6324C6.79549 17.7052 6.58062 16.7276 6.54152 15.7024L6.535 15.3589C6.535 12.3179 8.60839 10.7359 12.3097 10.7359C12.8072 10.7359 13.2105 11.1407 13.2105 11.6401V14.4881L19.6369 8.92606Z" fill="#5B5E60"/>
</svg>
