<svg width="24" height="24" viewBox="0 0 24 24" fill="none" xmlns="http://www.w3.org/2000/svg">
<path d="M2.3999 11.6C2.3999 11.4896 2.48945 11.4 2.5999 11.4H4.7999V12.6H2.5999C2.48945 12.6 2.3999 12.5105 2.3999 12.4V11.6ZM11.9999 11.4H21.3999C21.5104 11.4 21.5999 11.4896 21.5999 11.6V12.4C21.5999 12.5105 21.5104 12.6 21.3999 12.6H11.9999V11.4ZM13.1999 8.00005C13.1999 7.88959 13.2894 7.80005 13.3999 7.80005H18.9999C19.1104 7.80005 19.1999 7.88959 19.1999 8.00005V16C19.1999 16.1105 19.1104 16.2 18.9999 16.2H13.3999C13.2894 16.2 13.1999 16.1105 13.1999 16V8.00005ZM10.7999 6.00005V18H5.9999V6.00005H10.7999ZM11.9999 5.00005C11.9999 4.88959 11.9104 4.80005 11.7999 4.80005H4.9999C4.88945 4.80005 4.7999 4.88959 4.7999 5.00005V19C4.7999 19.1105 4.88945 19.2 4.9999 19.2H11.7999C11.9104 19.2 11.9999 19.1105 11.9999 19V5.00005Z" fill="#9D9DA0"/>
</svg>
