<svg width="24" height="24" viewBox="0 0 24 24" fill="none" xmlns="http://www.w3.org/2000/svg">
<path fill-rule="evenodd" clip-rule="evenodd" d="M12.591 2.70713C12.591 2.4061 12.5013 2.1134 12.3354 1.86586L12.2268 1.72305C11.6853 1.0926 10.7373 1.0221 10.1092 1.5656L2.92103 7.78573C2.86495 7.83426 2.81252 7.88688 2.76417 7.94318C2.22273 8.57363 2.29295 9.5253 2.92103 10.0688L10.1092 16.2889C10.3818 16.5248 10.7297 16.6545 11.0896 16.6545C11.9188 16.6545 12.591 15.9798 12.591 15.1474V12.5806L12.7562 12.596C14.7079 12.8027 15.5913 13.6355 15.6588 15.1642L15.663 15.3589C15.663 17.5551 14.6672 19.4832 12.6161 21.1931C11.8186 21.8579 12.5869 23.1266 13.5419 22.7219C18.8492 20.4735 21.5999 17.2706 21.5999 13.1473C21.5999 8.54291 18.2948 5.24749 12.8868 4.83956L12.591 4.81935V2.70713ZM4.36294 8.92606L10.7893 3.36525V5.70102C10.7893 6.19919 11.1906 6.60353 11.6869 6.60531L11.8388 6.60585C16.9036 6.64236 19.7981 9.29126 19.7981 13.1473C19.7981 15.277 18.8543 17.1276 16.9141 18.7083L16.7147 18.8661L16.8168 18.6324C17.2043 17.7052 17.4192 16.7276 17.4583 15.7024L17.4648 15.3589C17.4648 12.3179 15.3914 10.7359 11.6901 10.7359C11.1926 10.7359 10.7893 11.1407 10.7893 11.6401V14.4881L4.36294 8.92606Z" fill="#5B5E60"/>
</svg>
