<svg width="20" height="20" viewBox="0 0 20 20" fill="none" xmlns="http://www.w3.org/2000/svg">
<path d="M15.7467 7.22467C16.3443 7.22467 16.9174 7.46207 17.34 7.88465C17.7626 8.30723 18 8.88038 18 9.478V15.7467C18 16.3443 17.7626 16.9174 17.34 17.34C16.9174 17.7626 16.3443 18 15.7467 18H9.47733C8.87971 18 8.30657 17.7626 7.88399 17.34C7.4614 16.9174 7.224 16.3443 7.224 15.7467V13.4933H8.596V15.7467C8.596 16.2333 8.99067 16.6287 9.47733 16.6287H15.7467C16.2333 16.6287 16.6287 16.234 16.6287 15.7467V9.47733C16.6287 8.99067 16.234 8.596 15.7467 8.596H13.4933V7.22467H15.7467ZM6.02933 15.584L5.42533 18H4.044L4.648 15.584H6.02933ZM4.416 13.9707V15.352L2 15.956V14.5747L4.416 13.9707ZM10.5227 2C10.8186 2 11.1116 2.05828 11.385 2.17152C11.6584 2.28477 11.9068 2.45074 12.116 2.65999C12.3253 2.86923 12.4912 3.11763 12.6045 3.39102C12.7177 3.66441 12.776 3.95742 12.776 4.25333V6.50667H11.404V4.25333C11.404 3.76667 11.0093 3.37133 10.5227 3.37133H4.25333C3.76667 3.37133 3.37133 3.766 3.37133 4.25333V10.5227C3.37133 11.0093 3.766 11.404 4.25333 11.404H6.50667V12.7753H4.25333C3.65571 12.7753 3.08257 12.5379 2.65999 12.1153C2.2374 11.6928 2 11.1196 2 10.522V4.25333C2 3.65571 2.2374 3.08257 2.65999 2.65999C3.08257 2.2374 3.65571 2 4.25333 2H10.5227ZM11.7307 7.22467L11.73 8.26933H12.7753V10.5227C12.7753 11.1203 12.5379 11.6934 12.1153 12.116C11.6928 12.5386 11.1196 12.776 10.522 12.776H8.27V11.7293L7.22533 11.7307V9.47733C7.22533 9.18142 7.28362 8.88841 7.39686 8.61502C7.5101 8.34163 7.67608 8.09323 7.88532 7.88399C8.09456 7.67474 8.34297 7.50877 8.61635 7.39552C8.88974 7.28228 9.18275 7.224 9.47867 7.224H11.7313L11.7307 7.22467ZM11.404 8.596H9.47733C8.99067 8.596 8.596 8.99067 8.596 9.47733V11.404H10.5227C11.0093 11.404 11.404 11.0093 11.404 10.5227V8.596ZM18 4.044V5.42533L15.584 6.02933V4.648L18 4.044ZM15.956 2L15.352 4.416H13.9707L14.5747 2H15.956Z" fill="#5B5B5E"/>
</svg>
