<svg width="24" height="24" viewBox="0 0 24 24" fill="none" xmlns="http://www.w3.org/2000/svg">
<path d="M8.82178 3.59988C9.3188 3.59993 9.72217 4.00325 9.72217 4.50027C9.72202 4.99718 9.3187 5.39964 8.82178 5.39969H5.3999V19.7991H19.7983V13.8636C19.7985 13.3663 20.2024 12.9632 20.6997 12.9632C21.1969 12.9633 21.5999 13.3664 21.6001 13.8636V21.5149C21.5999 21.562 21.5612 21.5999 21.5142 21.5999H4.6001C4.04781 21.5999 3.6001 21.1522 3.6001 20.5999V3.66043C3.60019 3.62706 3.62726 3.59992 3.66064 3.59988H8.82178ZM18.4868 2.54031C18.8524 2.54822 19.216 2.67241 19.5151 2.91629L19.6431 3.0325L22.2368 5.62527C22.5883 5.97675 22.5883 6.54725 22.2368 6.89871C21.9174 7.21814 21.4173 7.24685 21.0649 6.98563L20.9634 6.89871L19.27 5.20535C18.7444 10.8492 15.6134 13.7999 10.5005 13.8001C10.0034 13.8001 9.6001 13.3967 9.6001 12.8997C9.60027 12.4028 10.0035 12.0003 10.5005 12.0003C14.5407 12.0001 16.9316 9.88517 17.4438 5.38992L15.936 6.89871C15.6165 7.21785 15.1163 7.24694 14.7642 6.98563L14.6636 6.89871C14.3441 6.57924 14.3154 6.07916 14.5767 5.72684L14.6636 5.62527L17.2573 3.0325C17.5771 2.7128 17.9933 2.54958 18.4126 2.54031C18.4249 2.53981 18.4373 2.53837 18.4497 2.53836C18.462 2.53836 18.4746 2.53982 18.4868 2.54031Z" fill="#5B5E60"/>
</svg>
