<svg width="20" height="20" viewBox="0 0 20 20" fill="none" xmlns="http://www.w3.org/2000/svg">
<path d="M5.625 6.25C5.65125 7.48708 6.07771 8.51896 6.90438 9.34562C7.73104 10.1723 8.76292 10.5988 10 10.625C11.2371 10.5988 12.269 10.1723 13.0956 9.34562C13.9223 8.51896 14.3488 7.48708 14.375 6.25C14.3488 5.01292 13.9223 3.98104 13.0956 3.15437C12.269 2.32771 11.2371 1.90125 10 1.875C8.76292 1.90125 7.73104 2.32771 6.90438 3.15437C6.07771 3.98104 5.65125 5.01292 5.625 6.25ZM16.25 18.125H3.125C2.9425 18.125 2.79271 18.0665 2.67563 17.9494C2.55854 17.8323 2.5 17.6825 2.5 17.5V15.625C2.52625 14.7396 2.83229 14.004 3.41812 13.4181C4.00396 12.8323 4.73958 12.5262 5.625 12.5H14.375C15.2604 12.5262 15.996 12.8323 16.5819 13.4181C17.1677 14.004 17.4738 14.7396 17.5 15.625V17.5C17.5 17.6825 17.4415 17.8323 17.3244 17.9494C17.2073 18.0665 17.0575 18.125 16.875 18.125H16.25Z" fill="#595959"/>
</svg>
