<svg width="16" height="16" viewBox="0 0 16 16" fill="none" xmlns="http://www.w3.org/2000/svg">
<path d="M11.9375 3.35944L7.99996 7.29694L4.06246 3.35944C3.95812 3.26578 3.84096 3.21894 3.71096 3.21894C3.58096 3.21894 3.46629 3.26844 3.36696 3.36744C3.26762 3.46644 3.21812 3.58111 3.21846 3.71144C3.21879 3.84178 3.26562 3.95895 3.35896 4.06295L7.29646 8.00044L3.35896 11.9379C3.22362 12.0733 3.17929 12.2348 3.22596 12.4224C3.27262 12.6101 3.38729 12.7273 3.56996 12.7739C3.75262 12.8206 3.91662 12.7763 4.06196 12.6409L7.99946 8.70344L11.937 12.6409C12.0413 12.7346 12.1585 12.7814 12.2885 12.7814C12.4185 12.7814 12.5331 12.7319 12.6325 12.6329C12.7318 12.5339 12.7813 12.4193 12.781 12.2889C12.7806 12.1586 12.7338 12.0414 12.6405 11.9374L8.70296 7.99994L12.6405 4.06244C12.7758 3.92711 12.8201 3.76561 12.7735 3.57794C12.7268 3.39028 12.6096 3.27311 12.422 3.22644C12.2343 3.17978 12.0728 3.22411 11.9375 3.35944Z" fill="#606266"/>
</svg>
