<svg width="20" height="20" viewBox="0 0 20 20" fill="none" xmlns="http://www.w3.org/2000/svg">
<path fill-rule="evenodd" clip-rule="evenodd" d="M17.495 3.49497C17.7683 3.22161 17.7683 2.77839 17.495 2.50502C17.2216 2.23166 16.7784 2.23166 16.505 2.50502L14.7156 4.29446C13.3364 3.48797 11.7352 3 10 3C7 3 4.40083 4.45855 2.65625 6.5C0.911667 8.54145 0.02625 9.70812 0 10C0.02625 10.2919 0.911667 11.4585 2.65625 13.5C3.08999 14.0075 3.57655 14.4791 4.10896 14.9011L2.50503 16.505C2.23166 16.7784 2.23166 17.2216 2.50503 17.495C2.77839 17.7683 3.22161 17.7683 3.49497 17.495L5.28441 15.7055C5.28653 15.7068 5.28864 15.708 5.29076 15.7092L7.39166 13.6083C7.38975 13.6069 7.38784 13.6055 7.38593 13.604L8.40342 12.5865C8.40546 12.5878 8.40751 12.5891 8.40955 12.5905L12.5725 8.42754C12.5712 8.42544 12.57 8.42333 12.5687 8.42123L13.5862 7.40374C13.5876 7.40571 13.589 7.40768 13.5903 7.40966L15.8966 5.10336C15.8948 5.10187 15.8929 5.10039 15.891 5.09891L17.495 3.49497ZM12.6141 6.396C11.8832 5.8455 10.9789 5.52 9.99998 5.52C7.56992 5.52 5.59998 7.52576 5.59998 10C5.59998 10.9678 5.90135 11.8639 6.41376 12.5963L7.43126 11.5788C7.15753 11.1181 6.99999 10.5778 6.99999 10C6.99999 8.31302 8.34313 6.94546 9.99999 6.94546C10.5868 6.94546 11.1342 7.11698 11.5966 7.41348L12.6141 6.396ZM14.2272 8.75271L16.9331 6.04681C17.0747 6.19428 17.2117 6.34547 17.3438 6.5C19.0883 8.54145 19.9737 9.70812 20 10C19.9737 10.2919 19.0883 11.4585 17.3438 13.5C15.5992 15.5415 13 17 10 17C8.80069 17 7.66545 16.7669 6.62325 16.3567L8.69897 14.2809C9.11014 14.4103 9.54707 14.48 9.99998 14.48C12.43 14.48 14.4 12.4742 14.4 10C14.4 9.56715 14.3397 9.14865 14.2272 8.75271ZM9.99999 13.0545C9.97534 13.0545 9.95076 13.0542 9.92626 13.0536L12.9999 9.97998L13 10C13 11.687 11.6568 13.0545 9.99999 13.0545Z" fill="#BFBFBF"/>
</svg>
