<svg width="20" height="20" viewBox="0 0 20 20" fill="none" xmlns="http://www.w3.org/2000/svg">
<path fill-rule="evenodd" clip-rule="evenodd" d="M10 3C13 3 15.5992 4.45855 17.3438 6.5C19.0883 8.54145 19.9737 9.70812 20 10C19.9737 10.2919 19.0883 11.4585 17.3438 13.5C15.5992 15.5415 13 17 10 17C7 17 4.40083 15.5415 2.65625 13.5C0.911667 11.4585 0.02625 10.2919 0 10C0.02625 9.70812 0.911667 8.54145 2.65625 6.5C4.40083 4.45855 7 3 10 3ZM14.4 10C14.4 12.4742 12.43 14.48 9.99998 14.48C7.56992 14.48 5.59998 12.4742 5.59998 10C5.59998 7.52576 7.56992 5.52 9.99998 5.52C12.43 5.52 14.4 7.52576 14.4 10ZM9.99999 13.0545C11.6568 13.0545 13 11.687 13 10C13 8.31302 11.6568 6.94546 9.99999 6.94546C8.34313 6.94546 6.99999 8.31302 6.99999 10C6.99999 11.687 8.34313 13.0545 9.99999 13.0545Z" fill="#BFBFBF"/>
</svg>
