<svg width="20" height="20" viewBox="0 0 20 20" fill="none" xmlns="http://www.w3.org/2000/svg">
<path fill-rule="evenodd" clip-rule="evenodd" d="M5 7.5H4.375C3.84125 7.51292 3.39854 7.69521 3.04688 8.04688C2.69521 8.39854 2.51292 8.84125 2.5 9.375V16.875C2.51292 17.4088 2.69521 17.8515 3.04688 18.2031C3.39854 18.5548 3.84125 18.7371 4.375 18.75H15.625C16.1587 18.7371 16.6015 18.5548 16.9531 18.2031C17.3048 17.8515 17.4871 17.4088 17.5 16.875V9.375C17.4871 8.84125 17.3048 8.39854 16.9531 8.04688C16.6015 7.69521 16.1587 7.51292 15.625 7.5H15V6.25C14.9608 4.83083 14.4725 3.6525 13.535 2.715C12.5975 1.7775 11.4192 1.28917 10 1.25C8.58083 1.28917 7.4025 1.7775 6.465 2.715C5.5275 3.6525 5.03917 4.83083 5 6.25V7.5ZM6.25 7.5H13.75V6.25C13.7238 5.18208 13.3592 4.29667 12.6562 3.59375C11.9533 2.89083 11.0679 2.52625 10 2.5C8.93208 2.52625 8.04667 2.89083 7.34375 3.59375C6.64083 4.29667 6.27625 5.18208 6.25 6.25V7.5ZM9.38753 15.1392C9.33175 15.0387 9.29999 14.9231 9.29999 14.8V11.2C9.29999 10.8134 9.61339 10.5 9.99999 10.5C10.3866 10.5 10.7 10.8134 10.7 11.2V14.8C10.7 14.923 10.6682 15.0387 10.6125 15.1392C10.4931 15.3544 10.2635 15.5 9.99999 15.5C9.73646 15.5 9.50695 15.3544 9.38753 15.1392Z" fill="#595959"/>
</svg>
