<svg width="320" height="120" viewBox="0 0 320 120" fill="none" xmlns="http://www.w3.org/2000/svg">
<path d="M50.0853 64V34.4H58.2053C67.2453 34.4 72.8453 39.08 72.8453 49.08C72.8453 59.04 67.2453 64 58.5253 64H50.0853ZM56.0053 59.24H57.8453C63.3653 59.24 66.8053 56.28 66.8053 49.08C66.8053 41.84 63.3653 39.12 57.8453 39.12H56.0053V59.24ZM78.64 64V34.4H84.56V64H78.64ZM96.8431 64V53.16L87.9631 34.4H94.2431L97.2031 41.6C98.0431 43.8 98.8431 45.88 99.7631 48.16H99.9231C100.843 45.88 101.723 43.8 102.563 41.6L105.523 34.4H111.683L102.763 53.16V64H96.8431ZM115.085 64V34.4H121.005V46.04H132.205V34.4H138.085V64H132.205V51.2H121.005V64H115.085ZM154.239 64.56C148.639 64.56 143.479 60.24 143.479 52.84C143.479 45.36 148.639 41.04 154.239 41.04C159.839 41.04 164.999 45.36 164.999 52.84C164.999 60.24 159.839 64.56 154.239 64.56ZM154.239 59.76C157.279 59.76 158.999 57.04 158.999 52.84C158.999 48.6 157.279 45.84 154.239 45.84C151.199 45.84 149.479 48.6 149.479 52.84C149.479 57.04 151.199 59.76 154.239 59.76ZM169.918 64V41.6H174.718L175.118 44.6H175.278C177.158 42.64 179.238 41.04 182.158 41.04C185.358 41.04 187.238 42.48 188.318 44.96C190.358 42.8 192.518 41.04 195.438 41.04C200.198 41.04 202.398 44.4 202.398 50.04V64H196.518V50.76C196.518 47.32 195.518 46.08 193.398 46.08C192.118 46.08 190.678 46.92 189.078 48.6V64H183.198V50.76C183.198 47.32 182.198 46.08 180.078 46.08C178.798 46.08 177.358 46.92 175.758 48.6V64H169.918ZM218.193 64.56C211.953 64.56 207.073 60.2 207.073 52.84C207.073 45.56 212.153 41.04 217.513 41.04C223.673 41.04 226.873 45.56 226.873 51.76C226.873 52.84 226.753 53.92 226.593 54.44H212.793C213.273 58.12 215.673 60.04 218.993 60.04C220.833 60.04 222.433 59.48 224.033 58.48L226.033 62.08C223.833 63.6 220.993 64.56 218.193 64.56ZM212.713 50.56H221.833C221.833 47.52 220.473 45.6 217.593 45.6C215.233 45.6 213.153 47.28 212.713 50.56Z" fill="black"/>
<rect x="237" y="44" width="36" height="20" rx="4" fill="#C4AC7F"/>
<path d="M246.335 54.982H249.163V52.28C249.163 51.72 249.219 50.852 249.247 50.292H249.191C248.939 50.81 248.659 51.342 248.365 51.874L246.335 54.982ZM251.991 54.982V56.228H250.675V59H249.163V56.228H244.711V55.15L248.813 48.696H250.675V54.982H251.991ZM254.501 59.182C253.899 59.182 253.423 58.72 253.423 58.062C253.423 57.404 253.899 56.914 254.501 56.914C255.103 56.914 255.579 57.404 255.579 58.062C255.579 58.72 255.103 59.182 254.501 59.182ZM260.575 59.182C258.545 59.182 257.243 57.39 257.243 53.806C257.243 50.236 258.545 48.5 260.575 48.5C262.591 48.5 263.907 50.25 263.907 53.806C263.907 57.39 262.591 59.182 260.575 59.182ZM260.575 57.908C261.625 57.908 262.367 56.788 262.367 53.806C262.367 50.852 261.625 49.774 260.575 49.774C259.525 49.774 258.783 50.852 258.783 53.806C258.783 56.788 259.525 57.908 260.575 57.908Z" fill="white"/>
<path d="M62.44 79.348H58.422C58.128 80.412 57.722 81.364 57.232 82.106C57.05 81.938 56.63 81.658 56.392 81.518C57.274 80.286 57.778 78.34 58.058 76.31L59.038 76.436C58.94 77.108 58.828 77.766 58.674 78.396H62.734L62.916 78.354L63.602 78.564C63.35 79.628 63 80.86 62.664 81.63L61.838 81.35C62.034 80.846 62.258 80.076 62.44 79.348ZM56.154 86.25L55.314 86.936C55.062 86.362 54.712 85.662 54.264 84.92C53.48 86.292 52.556 87.384 51.506 88.14C51.352 87.902 51.03 87.538 50.806 87.37C51.898 86.642 52.878 85.452 53.676 83.94C52.906 82.694 52.024 81.406 51.184 80.328L51.926 79.768C52.668 80.706 53.452 81.798 54.166 82.862C54.684 81.672 55.076 80.314 55.314 78.83H51.156V77.892H55.594L55.762 77.85L56.392 78.06C56.112 80.314 55.552 82.246 54.81 83.842C55.384 84.738 55.846 85.578 56.154 86.25ZM60.214 80.188V81.182C60.214 81.462 60.214 81.784 60.186 82.106C60.704 84.948 61.824 87.244 63.938 88.196C63.7 88.406 63.392 88.798 63.252 89.078C61.53 88.182 60.494 86.544 59.822 84.388C59.36 86.026 58.338 87.72 56.154 89.106C56 88.882 55.636 88.56 55.412 88.392C58.968 86.194 59.234 83.212 59.234 81.168V80.188H60.214ZM80.752 78.242V87.3H79.8V77.332H83.972V84.514C83.972 85.018 83.874 85.284 83.51 85.452C83.174 85.606 82.628 85.62 81.774 85.62C81.732 85.354 81.592 84.962 81.452 84.71C82.068 84.738 82.614 84.724 82.782 84.724C82.95 84.724 83.006 84.668 83.006 84.5V78.242H80.752ZM77.098 84.248L79.464 83.534C79.45 83.8 79.492 84.234 79.534 84.43C76.622 85.41 76.202 85.592 75.936 85.788C75.852 85.564 75.614 85.172 75.446 85.004C75.712 84.85 76.118 84.472 76.118 83.87V77.654C77.154 77.276 78.302 76.744 78.96 76.268L79.702 77.024C78.96 77.458 77.994 77.85 77.098 78.186V84.248ZM75.236 78.914L74.564 79.642C74.06 79.096 72.982 78.298 72.1 77.766L72.744 77.122C73.626 77.626 74.718 78.382 75.236 78.914ZM74.662 81.154V86.502C74.97 86.642 75.278 86.936 75.824 87.258C76.748 87.832 77.91 87.944 79.45 87.944C81.046 87.944 83.118 87.832 84.532 87.678C84.392 87.958 84.252 88.448 84.238 88.756C83.286 88.812 80.906 88.896 79.422 88.896C77.742 88.896 76.594 88.714 75.614 88.126C75.054 87.776 74.578 87.314 74.256 87.314C73.794 87.314 73.094 88.14 72.394 89.064L71.722 88.168C72.394 87.44 73.052 86.852 73.64 86.572V82.12H71.834V81.154H74.662ZM100.954 85.774L101.934 86.04C101.64 86.642 101.29 87.3 100.996 87.832H104.972V88.742H92.722V87.832H96.558C96.432 87.356 96.11 86.628 95.774 86.096L96.712 85.802C97.062 86.334 97.426 87.048 97.566 87.538L96.698 87.832H99.932C100.296 87.244 100.73 86.39 100.954 85.774ZM101.626 84.822V83.072H95.816V84.822H101.626ZM102.718 82.204V85.69H94.794V82.204H102.718ZM104.104 78.06L104.888 78.592C104.258 79.18 103.446 79.81 102.76 80.286C103.558 80.972 104.454 81.532 105.392 81.91C105.154 82.092 104.86 82.498 104.678 82.764C103.46 82.218 102.34 81.378 101.36 80.356V81.07H96.348V80.412C95.312 81.476 94.094 82.33 92.904 82.89C92.764 82.652 92.47 82.302 92.26 82.106C93.212 81.714 94.22 81.056 95.088 80.258C94.654 79.782 93.94 79.236 93.31 78.844L93.87 78.256C94.514 78.634 95.256 79.18 95.704 79.656C96.25 79.04 96.754 78.382 97.104 77.696H93.296V76.814H97.594L97.79 76.772L98.476 77.122C98.042 78.27 97.37 79.292 96.572 80.174H101.192C100.226 79.124 99.442 77.92 98.868 76.604L99.778 76.324C100.03 76.912 100.366 77.5 100.744 78.06C101.374 77.556 102.102 76.898 102.55 76.408L103.348 76.968C102.704 77.57 101.906 78.214 101.22 78.69C101.5 79.054 101.822 79.418 102.158 79.754C102.844 79.236 103.628 78.564 104.104 78.06ZM123.872 82.82L124.754 83.464C123.928 84.178 122.864 84.962 121.982 85.508C123.032 86.474 124.348 87.216 125.86 87.622C125.622 87.832 125.328 88.238 125.174 88.532C123.004 87.832 121.268 86.474 120.064 84.654V87.944C120.064 88.546 119.924 88.798 119.49 88.952C119.056 89.106 118.356 89.106 117.278 89.106C117.222 88.826 117.054 88.448 116.914 88.182C117.74 88.224 118.51 88.224 118.72 88.21C118.958 88.196 119.028 88.126 119.028 87.93V85.998C117.306 86.768 115.486 87.552 114.114 88.126L113.568 87.202C114.912 86.698 117.012 85.844 119.028 85.018V82.47H113.54V81.546H122.71C122.738 81.14 122.766 80.706 122.794 80.272H114.898V79.32H122.85C122.864 78.872 122.892 78.41 122.906 78.032H114.492V77.066H123.032L123.228 77.024L124.04 77.08C124.012 78.396 123.9 80.118 123.774 81.546H125.678V82.47H120.064V82.876C120.4 83.59 120.834 84.262 121.352 84.864C122.22 84.262 123.242 83.45 123.872 82.82ZM114.492 83.534L115.178 82.918C116.06 83.394 117.194 84.136 117.754 84.668L117.026 85.382C116.494 84.85 115.374 84.066 114.492 83.534ZM135.478 89.498L135.17 88.756C136.248 88.308 136.864 87.65 136.934 86.698C136.85 86.712 136.78 86.712 136.696 86.712C136.122 86.712 135.646 86.376 135.646 85.718C135.646 85.06 136.136 84.71 136.71 84.71C137.48 84.71 137.9 85.34 137.9 86.32C137.9 87.832 136.948 88.98 135.478 89.498ZM165.2 84.108H159.418V87.398H165.2V84.108ZM158.382 89.092V83.128H166.278V89.064H165.2V88.364H159.418V89.092H158.382ZM157.206 80.132H167.314V81.14H157.206C157.206 83.464 156.954 86.838 155.358 89.106C155.176 88.882 154.756 88.518 154.504 88.392C156.002 86.278 156.142 83.296 156.142 81.14V77.542C159.446 77.332 163.324 76.94 165.466 76.408L166.334 77.234C163.94 77.822 160.398 78.2 157.206 78.41V80.132ZM185.08 84.206H178.318V87.3H185.08V84.206ZM177.268 89.064V83.212H186.172V89.036H185.08V88.308H178.318V89.064H177.268ZM183.092 78.41L183.918 77.878C185.276 79.068 186.886 80.776 187.614 81.938L186.732 82.568C186.522 82.204 186.228 81.798 185.878 81.364C177.884 81.812 177.072 81.84 176.526 82.036C176.484 81.812 176.302 81.294 176.19 81.014C176.498 80.958 176.862 80.65 177.324 80.188C177.828 79.74 179.452 77.976 180.544 76.24L181.566 76.702C180.46 78.214 179.214 79.656 177.982 80.818L185.122 80.468C184.478 79.74 183.764 79.012 183.092 78.41ZM199.08 78.214H198.114C197.778 78.872 197.4 79.446 196.98 79.894C196.784 79.768 196.35 79.53 196.098 79.418C196.854 78.634 197.47 77.458 197.806 76.254L198.814 76.422C198.716 76.772 198.604 77.094 198.464 77.43H202.202V78.214H200.074C200.34 78.648 200.578 79.11 200.69 79.432L199.808 79.754C199.682 79.334 199.374 78.732 199.08 78.214ZM206.206 86.446H199.472V87.79H206.206V86.446ZM205.478 82.68H199.472V83.87H205.478V82.68ZM199.472 84.668V85.634H207.228V89.05H206.206V88.602H199.472V89.078H198.436V81.882H206.5V84.668H199.472ZM201.614 79.32L202.538 79.124C202.734 79.446 202.972 79.866 203.098 80.202H208.194V82.484H207.158V81.028H197.904V82.484H196.896V80.202H202.034C201.908 79.908 201.768 79.586 201.614 79.32ZM204.358 77.444H208.544V78.214H206.052C206.374 78.634 206.668 79.082 206.822 79.404L205.982 79.796C205.8 79.362 205.394 78.732 204.988 78.214H204.008C203.756 78.676 203.476 79.096 203.182 79.418C203 79.264 202.58 79.04 202.328 78.928C202.958 78.27 203.434 77.276 203.686 76.268L204.694 76.436C204.596 76.786 204.484 77.108 204.358 77.444ZM221.102 85.186L221.284 86.18C219.786 86.684 218.19 87.23 216.944 87.636L216.706 86.586C217.224 86.432 217.868 86.236 218.582 85.998V82.232H216.986V81.252H218.582V78.214H216.846V77.234H221.186V78.214H219.576V81.252H220.99V82.232H219.576V85.69L221.102 85.186ZM222.824 80.454V82.246H224.952V80.454H222.824ZM222.824 77.836V79.6H224.952V77.836H222.824ZM227.99 79.6V77.836H225.848V79.6H227.99ZM227.99 82.246V80.454H225.848V82.246H227.99ZM225.932 87.664H229.642V88.616H220.626V87.664H224.882V85.746H221.704V84.794H224.882V83.156H221.872V76.926H228.984V83.156H225.932V84.794H229.194V85.746H225.932V87.664ZM240.912 84.85L241.948 85.214C241.108 86.334 239.876 87.496 238.826 88.238C238.616 88.042 238.196 87.692 237.916 87.552C239.036 86.88 240.184 85.844 240.912 84.85ZM247.996 83.702L244.538 83.954V87.692C244.538 88.28 244.412 88.56 243.95 88.728C243.502 88.91 242.802 88.91 241.78 88.91C241.738 88.602 241.556 88.182 241.388 87.888C242.228 87.916 242.984 87.916 243.208 87.916C243.446 87.902 243.488 87.846 243.488 87.678V84.038C239.666 84.318 239.12 84.402 238.728 84.556C238.686 84.346 238.532 83.87 238.406 83.59C238.868 83.534 239.484 83.268 240.352 82.834C240.828 82.61 241.85 82.05 243.054 81.322C240.212 81.49 239.764 81.546 239.498 81.658C239.442 81.462 239.302 80.986 239.19 80.72C239.484 80.692 239.806 80.482 240.212 80.16C240.576 79.936 241.598 79.11 242.508 78.158C241.206 78.27 239.904 78.354 238.686 78.41C238.658 78.144 238.532 77.738 238.42 77.5C241.794 77.318 245.84 76.954 248.08 76.394L248.822 77.248C247.492 77.57 245.77 77.836 243.95 78.018C243.04 78.97 242.018 79.88 241.024 80.594L244.412 80.426C245.168 79.922 245.938 79.362 246.638 78.788L247.436 79.46C245.392 81.014 243.264 82.302 241.164 83.31L247.282 82.918C246.918 82.512 246.526 82.134 246.162 81.784L246.946 81.378C248.038 82.33 249.228 83.618 249.802 84.458L248.976 84.962C248.738 84.612 248.388 84.164 247.996 83.702ZM245.77 85.312L246.596 84.78C247.744 85.62 249.186 86.852 249.928 87.636L249.046 88.266C248.36 87.482 246.932 86.208 245.77 85.312ZM270.83 82.932L269.962 83.436C269.822 83.142 269.626 82.792 269.402 82.414C264.348 82.89 263.76 82.96 263.382 83.128C263.326 82.876 263.13 82.33 263.032 82.12C263.284 82.05 263.648 81.952 263.9 81.686C264.222 81.392 265.216 80.118 265.832 79.25H263.312V78.312H266.686C266.546 77.836 266.196 77.08 265.93 76.52L266.882 76.254C267.19 76.814 267.554 77.584 267.722 78.032L266.84 78.312H270.816V79.25H267.05C266.462 80.076 265.664 81.154 265.048 81.91L268.884 81.588C268.59 81.14 268.268 80.678 267.96 80.272L268.772 79.866C269.514 80.846 270.424 82.148 270.83 82.932ZM260.148 83.954L262.766 83.436C262.738 83.716 262.752 84.136 262.794 84.346C259.336 85.102 258.874 85.242 258.58 85.424C258.524 85.214 258.356 84.71 258.244 84.43C258.524 84.36 258.86 84.024 259.294 83.506C259.546 83.24 260.092 82.54 260.68 81.672C259.014 81.91 258.692 81.98 258.482 82.092C258.426 81.854 258.244 81.322 258.118 81.014C258.37 80.958 258.636 80.636 258.93 80.174C259.266 79.712 260.302 77.92 260.904 76.24L261.968 76.73C261.31 78.186 260.47 79.698 259.616 80.902L261.31 80.72C261.632 80.23 261.926 79.698 262.192 79.194L263.116 79.74C262.248 81.252 261.198 82.736 260.148 83.954ZM262.752 85.914L262.92 86.824C261.366 87.328 259.728 87.846 258.482 88.252L258.244 87.216C259.364 86.922 261.072 86.418 262.752 85.914ZM264.754 83.086H265.776C265.664 86.222 265.23 88 262.696 89.022C262.584 88.77 262.304 88.364 262.066 88.196C264.334 87.342 264.656 85.844 264.754 83.086ZM268.73 87.888H269.682C269.976 87.888 270.032 87.622 270.074 85.956C270.284 86.152 270.704 86.306 270.97 86.376C270.886 88.28 270.648 88.784 269.794 88.784H268.576C267.596 88.784 267.358 88.476 267.358 87.468V83.072H268.38V87.468C268.38 87.832 268.422 87.888 268.73 87.888Z" fill="black"/>
</svg>
