<svg width="20" height="20" viewBox="0 0 20 20" fill="none" xmlns="http://www.w3.org/2000/svg">
<path d="M15.0781 15.5274C13.9452 16.5432 12.6594 17.1682 11.2206 17.4024C9.78187 17.6365 8.37229 17.4607 6.99188 16.8749C5.61146 16.2499 4.52104 15.3253 3.72063 14.1011C2.92021 12.877 2.51333 11.5097 2.5 9.99925H3.75C3.76292 11.3143 4.12417 12.4926 4.83375 13.5343C5.54333 14.5759 6.51021 15.3376 7.73438 15.8193C8.95854 16.288 10.1858 16.3793 11.4163 16.093C12.6467 15.8068 13.711 15.1818 14.6094 14.218H12.7931C12.6106 14.218 12.4608 14.1595 12.3438 14.0424C12.2267 13.9253 12.1681 13.7788 12.1681 13.603C12.1681 13.4272 12.2267 13.2807 12.3438 13.1636C12.4608 13.0465 12.6106 12.9813 12.7931 12.968H15.7031C15.8723 12.9809 16.0156 13.0461 16.1331 13.1636C16.2506 13.2811 16.3158 13.4245 16.3287 13.5936V16.5036C16.3158 16.6861 16.2506 16.8359 16.1331 16.953C16.0156 17.0701 15.8692 17.1286 15.6938 17.1286C15.5183 17.1286 15.3719 17.0701 15.2544 16.953C15.1369 16.8359 15.0783 16.6861 15.0787 16.5036V15.5268L15.0781 15.5274ZM5.39062 5.78113H7.20688C7.38938 5.78113 7.53917 5.83967 7.65625 5.95675C7.77333 6.07383 7.83188 6.22029 7.83188 6.39613C7.83188 6.57196 7.77333 6.71842 7.65625 6.8355C7.53917 6.95259 7.38938 7.01779 7.20688 7.03113H4.29688C4.12771 7.01821 3.98437 6.953 3.86687 6.8355C3.74937 6.718 3.68417 6.57467 3.67125 6.4055V3.4955C3.68417 3.313 3.74937 3.16321 3.86687 3.04613C3.98437 2.92904 4.13083 2.8705 4.30625 2.8705C4.48167 2.8705 4.62812 2.92904 4.74562 3.04613C4.86312 3.16321 4.92167 3.313 4.92125 3.4955V4.47238C6.05417 3.45654 7.34 2.83154 8.77875 2.59738C10.2175 2.36321 11.6335 2.53904 13.0269 3.12488C14.4073 3.74988 15.4946 4.67446 16.2888 5.89863C17.0829 7.12279 17.4867 8.49008 17.5 10.0005H16.25C16.2371 8.6855 15.8758 7.50717 15.1663 6.4655C14.4567 5.42384 13.4898 4.66217 12.2656 4.1805C11.0415 3.71175 9.81417 3.6205 8.58375 3.90675C7.35333 4.193 6.28896 4.818 5.39062 5.78175V5.78113Z" fill="#262626"/>
</svg>
