<svg width="16" height="16" viewBox="0 0 16 16" fill="none" xmlns="http://www.w3.org/2000/svg">
<path d="M8 1C9.97933 1.052 11.6278 1.73683 12.9455 3.0545C14.2632 4.37217 14.948 6.02067 15 8C14.948 9.97933 14.2632 11.6278 12.9455 12.9455C11.6278 14.2632 9.97933 14.948 8 15C6.02067 14.948 4.37217 14.2632 3.0545 12.9455C1.73683 11.6278 1.052 9.97933 1 8C1.052 6.02067 1.73683 4.37217 3.0545 3.0545C4.37217 1.73683 6.02067 1.052 8 1ZM7.125 9.375L5.578 7.828C5.453 7.71333 5.30983 7.656 5.1485 7.656C4.98717 7.656 4.8465 7.71583 4.7265 7.8355C4.6065 7.95517 4.54667 8.09317 4.547 8.2495C4.54733 8.40583 4.60467 8.5465 4.719 8.6715L6.7035 10.656C6.81817 10.7707 6.95883 10.828 7.1255 10.828C7.29217 10.828 7.43283 10.7707 7.5475 10.656L11.657 6.5465C11.8133 6.39017 11.8628 6.2 11.8055 5.976C11.7482 5.752 11.6075 5.61133 11.3835 5.554C11.1595 5.49667 10.9693 5.54617 10.813 5.7025L7.125 9.375Z" fill="#2CDF73"/>
</svg>
