<svg viewBox="0 0 20 20" xmlns="http://www.w3.org/2000/svg" xmlns:xlink="http://www.w3.org/1999/xlink" width="20" height="20" fill="none" customFrame="#000000">
	<rect id="PictureFilled" width="20" height="20" x="0" y="0" />
	<path id="Union" d="M1.875 17.5C1.70924 17.5 1.55027 17.4342 1.43306 17.3169C1.31585 17.1997 1.25 17.0408 1.25 16.875L1.25 3.125C1.25 2.95924 1.31585 2.80027 1.43306 2.68306C1.55027 2.56585 1.70924 2.5 1.875 2.5L18.125 2.5C18.2908 2.5 18.4497 2.56585 18.5669 2.68306C18.6842 2.80027 18.75 2.95924 18.75 3.125L18.75 16.875C18.75 17.0408 18.6842 17.1997 18.5669 17.3169C18.4497 17.4342 18.2908 17.5 18.125 17.5L1.875 17.5ZM8.0375 13.0375L6.69125 11.6912C6.57405 11.5741 6.4151 11.5083 6.24937 11.5083C6.08365 11.5083 5.9247 11.5741 5.8075 11.6912L2.5 15.0013L17.7087 15.0013L12.98 9.32625C12.9213 9.25569 12.8479 9.19892 12.7648 9.15995C12.6818 9.12098 12.5911 9.10078 12.4994 9.10078C12.4076 9.10078 12.317 9.12098 12.2339 9.15995C12.1509 9.19892 12.0774 9.25569 12.0187 9.32625L8.96 12.9963C8.90436 13.063 8.83541 13.1174 8.75756 13.156C8.67971 13.1946 8.59466 13.2165 8.50785 13.2204C8.42104 13.2243 8.33438 13.21 8.25339 13.1785C8.17241 13.1471 8.09888 13.099 8.0375 13.0375ZM5 7.5C5.00008 7.74631 5.04868 7.99019 5.14301 8.21772C5.23735 8.44525 5.37557 8.65197 5.5498 8.82608C5.72403 9.00019 5.93084 9.13828 6.15843 9.23247C6.38602 9.32665 6.62994 9.37508 6.87625 9.375C7.12256 9.37492 7.36644 9.32632 7.59397 9.23199C7.8215 9.13765 8.02822 8.99943 8.20233 8.8252C8.37644 8.65097 8.51453 8.44416 8.60872 8.21657C8.7029 7.98898 8.75133 7.74506 8.75125 7.49875C8.75108 7.0013 8.55332 6.5243 8.20145 6.17267C7.84959 5.82104 7.37245 5.62358 6.875 5.62375C6.37755 5.62392 5.90055 5.82168 5.54892 6.17355C5.19729 6.52541 4.99983 7.00255 5 7.5Z" fill="rgb(152,158,170)" fill-rule="nonzero" />
</svg>
