<svg width="24" height="24" viewBox="0 0 24 24" fill="none" xmlns="http://www.w3.org/2000/svg">
<path d="M7.44043 15.7623H2.2373C2.03105 15.7623 1.8623 15.9311 1.8623 16.1373V17.2623C1.8623 17.4686 2.03105 17.6373 2.2373 17.6373H6.31543V21.7623C6.31543 21.9686 6.48418 22.1373 6.69043 22.1373H7.81543C8.02168 22.1373 8.19043 21.9686 8.19043 21.7623V16.5123C8.19043 16.0975 7.85527 15.7623 7.44043 15.7623ZM7.81543 1.8623H6.69043C6.48418 1.8623 6.31543 2.03105 6.31543 2.2373V6.3623H2.2373C2.03105 6.3623 1.8623 6.53105 1.8623 6.7373V7.8623C1.8623 8.06855 2.03105 8.23731 2.2373 8.23731H7.44043C7.85527 8.23731 8.19043 7.90215 8.19043 7.4873V2.2373C8.19043 2.03105 8.02168 1.8623 7.81543 1.8623ZM21.7623 15.7623H16.5592C16.1443 15.7623 15.8092 16.0975 15.8092 16.5123V21.7623C15.8092 21.9686 15.9779 22.1373 16.1842 22.1373H17.3092C17.5154 22.1373 17.6842 21.9686 17.6842 21.7623V17.6373H21.7623C21.9686 17.6373 22.1373 17.4686 22.1373 17.2623V16.1373C22.1373 15.9311 21.9686 15.7623 21.7623 15.7623ZM21.7623 6.3623H17.6842V2.2373C17.6842 2.03105 17.5154 1.8623 17.3092 1.8623H16.1842C15.9779 1.8623 15.8092 2.03105 15.8092 2.2373V7.4873C15.8092 7.90215 16.1443 8.23731 16.5592 8.23731H21.7623C21.9686 8.23731 22.1373 8.06855 22.1373 7.8623V6.7373C22.1373 6.53105 21.9686 6.3623 21.7623 6.3623Z" fill="#5B5B5E"/>
</svg>
