<svg width="24" height="24" viewBox="0 0 24 24" fill="none" xmlns="http://www.w3.org/2000/svg">
<path d="M7.20019 3.2999C7.20019 2.80285 7.60314 2.3999 8.10019 2.3999H15.9002C16.3973 2.3999 16.8002 2.80285 16.8002 3.2999C16.8002 3.79696 16.3973 4.1999 15.9002 4.1999H8.10019C7.60314 4.1999 7.20019 3.79696 7.20019 3.2999Z" fill="#5B5E60"/>
<path d="M15.0061 11.0334C14.6547 10.6819 14.0848 10.6819 13.7333 11.0334L11.9697 12.797L10.2061 11.0334L10.1052 10.9462C9.75285 10.6848 9.25285 10.7138 8.93333 11.0334C8.58186 11.3848 8.58186 11.9547 8.93333 12.3062L10.6969 14.0698L8.93333 15.8334L8.84619 15.9343C8.58476 16.2866 8.61381 16.7866 8.93333 17.1062C9.2848 17.4576 9.85465 17.4576 10.2061 17.1062L11.9697 15.3426L13.7333 17.1062L13.8343 17.1933C14.1866 17.4547 14.6866 17.4257 15.0061 17.1062C15.3576 16.7547 15.3576 16.1848 15.0061 15.8334L13.2425 14.0698L15.0061 12.3062L15.0933 12.2052C15.3547 11.8529 15.3256 11.3529 15.0061 11.0334Z" fill="#5B5E60"/>
<path fill-rule="evenodd" clip-rule="evenodd" d="M18.9002 8.0999H20.4002L20.5223 8.09169C20.9616 8.03209 21.3002 7.65554 21.3002 7.1999C21.3002 6.70285 20.8972 6.2999 20.4002 6.2999H3.6002L3.47807 6.30812C3.03878 6.36771 2.7002 6.74427 2.7002 7.1999C2.7002 7.69696 3.10314 8.0999 3.6002 8.0999H5.1002V20.3958C5.1002 21.0585 5.63745 21.5958 6.30019 21.5958H17.7002C18.3629 21.5958 18.9002 21.0585 18.9002 20.3958V8.0999ZM17.1002 8.0999H6.9002V19.7951H17.1002V8.0999Z" fill="#5B5E60"/>
</svg>
