<svg width="24" height="24" viewBox="0 0 24 24" fill="none" xmlns="http://www.w3.org/2000/svg">
<path d="M11.4316 14.9014C11.7851 14.6133 12.3063 14.6346 12.6357 14.9639L16.2363 18.5635L16.2979 18.6318C16.5862 18.9853 16.5659 19.5074 16.2363 19.8369C15.9068 20.1664 15.3847 20.1868 15.0312 19.8984L14.9639 19.8369L12 16.873L9.03613 19.8369C8.68475 20.1881 8.11511 20.188 7.76367 19.8369C7.4122 19.4854 7.4122 18.9149 7.76367 18.5635L11.3633 14.9639L11.4316 14.9014ZM14.9639 4.16406C15.3153 3.8127 15.8849 3.81263 16.2363 4.16406C16.5875 4.51552 16.5876 5.08512 16.2363 5.43652L12.6357 9.03613C12.2843 9.3876 11.7148 9.3876 11.3633 9.03613L7.76367 5.43652C7.4122 5.08505 7.4122 4.51553 7.76367 4.16406C8.11514 3.8126 8.68467 3.81259 9.03613 4.16406L12 7.12793L14.9639 4.16406Z" fill="#5B5B5E"/>
</svg>
