<svg width="32" height="32" viewBox="0 0 32 32" fill="none" xmlns="http://www.w3.org/2000/svg">
<path d="M16 5.5C18.7848 5.5 21.4555 6.60625 23.4246 8.57538C25.3938 10.5445 26.5 13.2152 26.5 16C26.5 18.7848 25.3938 21.4555 23.4246 23.4246C21.4555 25.3938 18.7848 26.5 16 26.5C13.2152 26.5 10.5445 25.3938 8.57538 23.4246C6.60625 21.4555 5.5 18.7848 5.5 16C5.5 13.2152 6.60625 10.5445 8.57538 8.57538C10.5445 6.60625 13.2152 5.5 16 5.5ZM16 7.3C13.6926 7.3 11.4797 8.2166 9.84817 9.84817C8.2166 11.4797 7.3 13.6926 7.3 16C7.3 18.3074 8.2166 20.5203 9.84817 22.1518C11.4797 23.7834 13.6926 24.7 16 24.7C18.3074 24.7 20.5203 23.7834 22.1518 22.1518C23.7834 20.5203 24.7 18.3074 24.7 16C24.7 13.6926 23.7834 11.4797 22.1518 9.84817C20.5203 8.2166 18.3074 7.3 16 7.3ZM19.6 15.1C19.8387 15.1 20.0676 15.1948 20.2364 15.3636C20.4052 15.5324 20.5 15.7613 20.5 16C20.5 16.2387 20.4052 16.4676 20.2364 16.6364C20.0676 16.8052 19.8387 16.9 19.6 16.9H12.4C12.1613 16.9 11.9324 16.8052 11.7636 16.6364C11.5948 16.4676 11.5 16.2387 11.5 16C11.5 15.7613 11.5948 15.5324 11.7636 15.3636C11.9324 15.1948 12.1613 15.1 12.4 15.1H19.6Z" fill="#5B5E60"/>
</svg>
