<svg width="24" height="24" viewBox="0 0 24 24" fill="none" xmlns="http://www.w3.org/2000/svg">
<path d="M11.4316 4.10205C11.7851 3.81368 12.3072 3.83405 12.6367 4.16357L16.2363 7.76416L16.2988 7.83154C16.5871 8.18504 16.5658 8.70712 16.2363 9.03662C15.9068 9.36604 15.3847 9.38648 15.0312 9.09814L14.9639 9.03662L12.9004 6.97314V17.0269L14.9639 14.9634C15.3153 14.6122 15.8849 14.6123 16.2363 14.9634C16.5878 15.3149 16.5878 15.8853 16.2363 16.2368L12.6367 19.8364L12.5684 19.8989C12.2149 20.187 11.6937 20.1657 11.3643 19.8364L7.76367 16.2368L7.70215 16.1685C7.41378 15.815 7.43415 15.2929 7.76367 14.9634C8.0932 14.634 8.6153 14.6135 8.96875 14.9019L9.03613 14.9634L11.1006 17.0278V6.97217L9.03613 9.03662C8.68468 9.38786 8.11508 9.38793 7.76367 9.03662C7.41227 8.68522 7.41241 8.11565 7.76367 7.76416L11.3633 4.16357L11.4316 4.10205Z" fill="#5B5B5E"/>
</svg>
