<svg width="24" height="24" viewBox="0 0 24 24" fill="none" xmlns="http://www.w3.org/2000/svg">
<path d="M8.82129 3.59985C9.31831 3.5999 9.72168 4.00322 9.72168 4.50024C9.72153 4.99715 9.31822 5.39961 8.82129 5.39966H5.39941V19.7991H19.7979V13.8635C19.798 13.3662 20.2019 12.9631 20.6992 12.9631C21.1964 12.9633 21.5994 13.3663 21.5996 13.8635V21.5149C21.5994 21.5619 21.5608 21.5999 21.5137 21.5999H4.59961C4.04732 21.5999 3.59961 21.1521 3.59961 20.5999V3.6604C3.59971 3.62703 3.62677 3.59989 3.66016 3.59985H8.82129ZM18.4863 2.54028C18.8519 2.54819 19.2155 2.67238 19.5146 2.91626L19.6426 3.03247L22.2363 5.62524C22.5878 5.97672 22.5878 6.54722 22.2363 6.89868C21.9169 7.21811 21.4168 7.24681 21.0645 6.9856L20.9629 6.89868L19.2695 5.20532C18.7439 10.8491 15.6129 13.7999 10.5 13.8C10.0029 13.8 9.59961 13.3967 9.59961 12.8997C9.59978 12.4027 10.003 12.0002 10.5 12.0002C14.5402 12.0001 16.9311 9.88514 17.4434 5.38989L15.9355 6.89868C15.616 7.21782 15.1159 7.24691 14.7637 6.9856L14.6631 6.89868C14.3436 6.57921 14.3149 6.07913 14.5762 5.72681L14.6631 5.62524L17.2568 3.03247C17.5766 2.71277 17.9928 2.54955 18.4121 2.54028C18.4244 2.53978 18.4368 2.53834 18.4492 2.53833C18.4615 2.53833 18.4741 2.53979 18.4863 2.54028Z" fill="#5B5E60"/>
</svg>
