<svg width="24" height="24" viewBox="0 0 24 24" fill="none" xmlns="http://www.w3.org/2000/svg">
<path d="M11.7002 2.3999C12.1973 2.3999 12.6006 2.80324 12.6006 3.30029C12.6004 3.75575 12.2614 4.13232 11.8223 4.19189L11.7002 4.19971H4.2002V19.8003H19.8008V11.3335C19.8008 10.8779 20.1389 10.5016 20.5781 10.4419L20.7002 10.4331C21.1558 10.4331 21.5322 10.7721 21.5918 11.2114L21.6006 11.3335V20.6001C21.6005 21.1522 21.1527 21.6 20.6006 21.6001H3.40039C2.84817 21.6001 2.4005 21.1523 2.40039 20.6001V3.3999C2.40039 2.84762 2.84811 2.3999 3.40039 2.3999H11.7002ZM20.7002 3.6001C21.1971 3.6001 21.6004 4.00263 21.6006 4.49951C21.6006 4.99657 21.1973 5.3999 20.7002 5.3999C16.6603 5.39997 14.2685 7.51406 13.7559 12.0083L15.2637 10.5015C15.5832 10.182 16.0832 10.1532 16.4355 10.4146L16.5371 10.5015C16.8565 10.821 16.8854 11.3211 16.624 11.6733L16.5371 11.7739L13.9434 14.3677C13.6234 14.6876 13.2066 14.8508 12.7871 14.8599C12.7749 14.8604 12.7623 14.8618 12.75 14.8618C12.7376 14.8618 12.7252 14.8604 12.7129 14.8599C12.3475 14.8518 11.9845 14.7267 11.6855 14.4829L11.5576 14.3677L8.96387 11.7739C8.61267 11.4224 8.61251 10.8528 8.96387 10.5015C9.28339 10.1819 9.78341 10.1531 10.1357 10.4146L10.2363 10.5015L11.9297 12.1948C12.4553 6.55073 15.5871 3.60017 20.7002 3.6001Z" fill="#5B5E60"/>
</svg>
