<svg width="24" height="24" viewBox="0 0 24 24" fill="none" xmlns="http://www.w3.org/2000/svg">
<path d="M21.5996 16.1997L18.8555 17.5718L20.9746 19.6548L19.6621 20.9448L17.5791 18.8413L16.2002 21.6001L13.2002 13.1997L21.5996 16.1997ZM10.2002 12.6001C10.8628 12.6003 11.3994 13.1377 11.3994 13.8003V19.1997C11.3994 19.8208 10.928 20.3323 10.3232 20.394L10.2002 20.3999H3L2.87695 20.394C2.31244 20.3366 1.86314 19.8873 1.80566 19.3228L1.7998 19.1997V13.8003C1.7998 13.1376 2.33726 12.6001 3 12.6001H10.2002ZM3.59961 18.6001H9.59961V14.3999H3.59961V18.6001ZM10.2002 3.6001C10.8628 3.60031 11.3994 4.13768 11.3994 4.80029V10.1997C11.3994 10.8208 10.928 11.3323 10.3232 11.394L10.2002 11.3999H3L2.87695 11.394C2.31244 11.3366 1.86314 10.8873 1.80566 10.3228L1.7998 10.1997V4.80029C1.7998 4.13755 2.33726 3.6001 3 3.6001H10.2002ZM21 3.6001C21.6627 3.6002 22.2002 4.13762 22.2002 4.80029V10.1997C22.2002 10.8208 21.7279 11.3323 21.123 11.394L21 11.3999H13.7998L13.6768 11.394C13.1123 11.3366 12.6629 10.8873 12.6055 10.3228L12.5996 10.1997V4.80029C12.5996 4.13755 13.1371 3.6001 13.7998 3.6001H21ZM3.59961 9.6001H9.59961V5.3999H3.59961V9.6001ZM14.3994 9.6001H20.3994V5.3999H14.3994V9.6001Z" fill="#5B5B5E"/>
</svg>
