<svg width="24" height="24" viewBox="0 0 24 24" fill="none" xmlns="http://www.w3.org/2000/svg">
<path fill-rule="evenodd" clip-rule="evenodd" d="M11.4093 2.70713C11.4093 2.4061 11.499 2.1134 11.6649 1.86586L11.7735 1.72305C12.3149 1.0926 13.263 1.0221 13.8911 1.5656L21.0793 7.78573C21.1353 7.83426 21.1878 7.88688 21.2361 7.94318C21.7776 8.57363 21.7073 9.5253 21.0793 10.0688L13.8911 16.2889C13.6185 16.5248 13.2706 16.6545 12.9107 16.6545C12.0815 16.6545 11.4093 15.9798 11.4093 15.1474V12.5806L11.2441 12.596C9.29238 12.8027 8.40902 13.6355 8.34147 15.1642L8.33726 15.3589C8.33726 17.5551 9.33305 19.4832 11.3842 21.1931C12.1817 21.8579 11.4134 23.1266 10.4584 22.7219C5.15113 20.4735 2.40039 17.2706 2.40039 13.1473C2.40039 8.54291 5.70548 5.24749 11.1135 4.83956L11.4093 4.81935V2.70713ZM19.6374 8.92606L13.211 3.36525V5.70102C13.211 6.19919 12.8096 6.60353 12.3134 6.60531L12.1615 6.60585C7.09674 6.64236 4.20216 9.29126 4.20216 13.1473C4.20216 15.277 5.14596 17.1276 7.08617 18.7083L7.2856 18.8661L7.18347 18.6324C6.79597 17.7052 6.5811 16.7276 6.542 15.7024L6.53549 15.3589C6.53549 12.3179 8.60888 10.7359 12.3101 10.7359C12.8077 10.7359 13.211 11.1407 13.211 11.6401V14.4881L19.6374 8.92606Z" fill="#5B5E60"/>
</svg>
