<svg width="24" height="24" viewBox="0 0 24 24" fill="none" xmlns="http://www.w3.org/2000/svg">
<path fill-rule="evenodd" clip-rule="evenodd" d="M12.591 2.7064C12.591 2.40536 12.5013 2.11267 12.3354 1.86513L12.2268 1.72232C11.6853 1.09187 10.7373 1.02137 10.1092 1.56487L2.92103 7.78499C2.86495 7.83352 2.81252 7.88615 2.76417 7.94245C2.22273 8.5729 2.29295 9.52457 2.92103 10.0681L10.1092 16.2882C10.3818 16.5241 10.7297 16.6538 11.0896 16.6538C11.9188 16.6538 12.591 15.979 12.591 15.1467V12.5799L12.7562 12.5952C14.7079 12.802 15.5913 13.6348 15.6588 15.1634L15.663 15.3582C15.663 17.5543 14.6672 19.4825 12.6161 21.1924C11.8186 21.8572 12.5869 23.1258 13.5419 22.7212C18.8492 20.4728 21.5999 17.2698 21.5999 13.1466C21.5999 8.54218 18.2948 5.24676 12.8868 4.83882L12.591 4.81862V2.7064ZM4.36294 8.92532L10.7893 3.36451V5.70029C10.7893 6.19846 11.1906 6.6028 11.6869 6.60458L11.8388 6.60512C16.9036 6.64162 19.7981 9.29053 19.7981 13.1466C19.7981 15.2763 18.8543 17.1269 16.9141 18.7076L16.7147 18.8653L16.8168 18.6317C17.2043 17.7045 17.4192 16.7269 17.4583 15.7017L17.4648 15.3582C17.4648 12.3171 15.3914 10.7351 11.6901 10.7351C11.1926 10.7351 10.7893 11.14 10.7893 11.6394V14.4873L4.36294 8.92532Z" fill="#5B5E60"/>
</svg>
