<svg width="24" height="24" viewBox="0 0 24 24" fill="none" xmlns="http://www.w3.org/2000/svg">
<path fill-rule="evenodd" clip-rule="evenodd" d="M20.4004 2.3999C21.0631 2.3999 21.6004 2.93716 21.6004 3.5999V20.3999C21.6004 21.0626 21.0631 21.5999 20.4004 21.5999H3.60039C2.93765 21.5999 2.40039 21.0626 2.40039 20.3999V3.5999C2.40039 2.93716 2.93765 2.3999 3.60039 2.3999H20.4004ZM7.20039 4.1999H4.20039V19.7999H19.8004V4.1999H16.8004V11.9999C16.8004 12.6626 16.2631 13.1999 15.6004 13.1999H8.40039C7.73765 13.1999 7.20039 12.6626 7.20039 11.9999V4.1999ZM9.00039 4.1999V11.3999H15.0004V4.1999H9.00039Z" fill="#5B5E60"/>
</svg>
