<svg width="24" height="24" viewBox="0 0 24 24" fill="none" xmlns="http://www.w3.org/2000/svg">
<path d="M21.6758 14.6632L20.1406 13.3507C20.2133 12.9054 20.2508 12.4507 20.2508 11.996C20.2508 11.5414 20.2133 11.0867 20.1406 10.6414L21.6758 9.32886C21.7916 9.22973 21.8745 9.09771 21.9134 8.95034C21.9523 8.80297 21.9455 8.64724 21.8938 8.50386L21.8727 8.44292C21.45 7.26173 20.8172 6.16675 20.0047 5.21089L19.9625 5.16167C19.8639 5.04578 19.7326 4.96247 19.5857 4.92272C19.4389 4.88297 19.2834 4.88865 19.1398 4.93901L17.2344 5.61636C16.5313 5.03979 15.7461 4.58511 14.8977 4.26636L14.5297 2.27417C14.5019 2.12427 14.4292 1.98636 14.3212 1.87877C14.2132 1.77119 14.075 1.69901 13.925 1.67183L13.8617 1.66011C12.6406 1.43979 11.3563 1.43979 10.1352 1.66011L10.0719 1.67183C9.92187 1.69901 9.78368 1.77119 9.67568 1.87877C9.56767 1.98636 9.49495 2.12427 9.46719 2.27417L9.09688 4.27573C8.25521 4.59455 7.47141 5.049 6.77657 5.62104L4.85704 4.93901C4.71352 4.88825 4.55795 4.88237 4.41101 4.92214C4.26407 4.96191 4.1327 5.04545 4.03438 5.16167L3.99219 5.21089C3.18066 6.16743 2.54792 7.26223 2.12422 8.44292L2.10313 8.50386C1.99766 8.79683 2.08438 9.12495 2.3211 9.32886L3.875 10.6554C3.80235 11.096 3.76719 11.546 3.76719 11.9937C3.76719 12.4437 3.80235 12.8937 3.875 13.332L2.3211 14.6585C2.20531 14.7577 2.12243 14.8897 2.0835 15.0371C2.04456 15.1844 2.05141 15.3402 2.10313 15.4835L2.12422 15.5445C2.54844 16.7257 3.17657 17.8156 3.99219 18.7765L4.03438 18.8257C4.13294 18.9416 4.26431 19.0249 4.41117 19.0647C4.55802 19.1044 4.71347 19.0987 4.85704 19.0484L6.77657 18.3664C7.47501 18.9406 8.25547 19.3953 9.09688 19.7117L9.46719 21.7132C9.49495 21.8631 9.56767 22.001 9.67568 22.1086C9.78368 22.2162 9.92187 22.2884 10.0719 22.3156L10.1352 22.3273C11.3675 22.5488 12.6294 22.5488 13.8617 22.3273L13.925 22.3156C14.075 22.2884 14.2132 22.2162 14.3212 22.1086C14.4292 22.001 14.5019 21.8631 14.5297 21.7132L14.8977 19.721C15.7458 19.4031 16.5353 18.947 17.2344 18.371L19.1398 19.0484C19.2834 19.0991 19.4389 19.105 19.5859 19.0653C19.7328 19.0255 19.8642 18.9419 19.9625 18.8257L20.0047 18.7765C20.8203 17.8132 21.4484 16.7257 21.8727 15.5445L21.8938 15.4835C21.9992 15.1953 21.9125 14.8671 21.6758 14.6632ZM18.4766 10.9179C18.5352 11.2718 18.5656 11.6351 18.5656 11.9984C18.5656 12.3617 18.5352 12.725 18.4766 13.0789L18.3219 14.0187L20.0727 15.5164C19.8072 16.1278 19.4722 16.7066 19.0742 17.2414L16.8992 16.4703L16.1633 17.075C15.6031 17.5343 14.9797 17.8953 14.3047 18.1484L13.4117 18.4835L12.9922 20.757C12.3302 20.832 11.6619 20.832 11 20.757L10.5805 18.4789L9.69454 18.139C9.02657 17.8859 8.40547 17.525 7.85 17.0679L7.11407 16.4609L4.925 17.239C4.52657 16.7023 4.19375 16.1234 3.92657 15.514L5.6961 14.0023L5.54376 13.0648C5.4875 12.7156 5.45704 12.3546 5.45704 11.9984C5.45704 11.6398 5.48516 11.2812 5.54376 10.932L5.6961 9.99448L3.92657 8.48276C4.19141 7.87104 4.52657 7.29448 4.925 6.75776L7.11407 7.53589L7.85 6.92886C8.40547 6.47183 9.02657 6.11089 9.69454 5.85776L10.5828 5.52261L11.0023 3.24448C11.6609 3.16948 12.3336 3.16948 12.9945 3.24448L13.4141 5.51792L14.307 5.85308C14.9797 6.1062 15.6055 6.46714 16.1656 6.92651L16.9016 7.5312L19.0766 6.76011C19.475 7.29683 19.8078 7.87573 20.075 8.48511L18.3242 9.98276L18.4766 10.9179ZM12.0008 7.63901C9.72266 7.63901 7.87579 9.48589 7.87579 11.764C7.87579 14.0421 9.72266 15.889 12.0008 15.889C14.2789 15.889 16.1258 14.0421 16.1258 11.764C16.1258 9.48589 14.2789 7.63901 12.0008 7.63901ZM13.857 13.6203C13.6136 13.8644 13.3242 14.058 13.0057 14.19C12.6871 14.3219 12.3456 14.3896 12.0008 14.389C11.3 14.389 10.6414 14.1148 10.1445 13.6203C9.90037 13.3768 9.70676 13.0875 9.57482 12.7689C9.44289 12.4503 9.37525 12.1088 9.37579 11.764C9.37579 11.0632 9.65 10.4046 10.1445 9.90776C10.6414 9.41089 11.3 9.13901 12.0008 9.13901C12.7016 9.13901 13.3602 9.41089 13.857 9.90776C14.1012 10.1512 14.2948 10.4406 14.4267 10.7591C14.5587 11.0777 14.6263 11.4192 14.6258 11.764C14.6258 12.4648 14.3516 13.1234 13.857 13.6203Z" fill="#5B5E60"/>
</svg>
